<mxfile host="app.diagrams.net" agent="Mozilla/5.0 (Windows NT 10.0; Win64; x64) AppleWebKit/537.36 (KHTML, like Gecko) Chrome/130.0.0.0 Safari/537.36" version="24.8.3" pages="5">
  <diagram id="ytr2BMaVXfbYTs0FCxOI" name="Mapa de Procesos">
    <mxGraphModel dx="1687" dy="965" grid="1" gridSize="10" guides="1" tooltips="1" connect="1" arrows="1" fold="1" page="1" pageScale="1" pageWidth="850" pageHeight="1100" math="0" shadow="0">
      <root>
        <mxCell id="0" />
        <mxCell id="1" parent="0" />
        <mxCell id="z2PNZBZcIhWz65c71THJ-30" value="Control (8)" style="swimlane;fillColor=#002060;fontColor=#FFFFFF;" parent="1" vertex="1">
          <mxGeometry x="21" y="1957" width="1640" height="170" as="geometry">
            <mxRectangle x="40" y="2040" width="80" height="30" as="alternateBounds" />
          </mxGeometry>
        </mxCell>
        <mxCell id="z2PNZBZcIhWz65c71THJ-31" value="Control-02. Producción Ganadera" style="swimlane;fillColor=#FFC000;" parent="z2PNZBZcIhWz65c71THJ-30" vertex="1">
          <mxGeometry x="76" y="43" width="210" height="110" as="geometry">
            <mxRectangle x="40" y="80" width="220" height="30" as="alternateBounds" />
          </mxGeometry>
        </mxCell>
        <mxCell id="z2PNZBZcIhWz65c71THJ-32" value="Actualización de Listas de ganado" style="rounded=1;whiteSpace=wrap;html=1;" parent="z2PNZBZcIhWz65c71THJ-31" vertex="1">
          <mxGeometry x="49" y="34" width="120" height="60" as="geometry" />
        </mxCell>
        <mxCell id="z2PNZBZcIhWz65c71THJ-33" value="Control-04. Operaciones y Logística" style="swimlane;fillColor=#FFC000;" parent="z2PNZBZcIhWz65c71THJ-30" vertex="1">
          <mxGeometry x="339" y="42" width="560" height="110" as="geometry">
            <mxRectangle x="30" y="270" width="230" height="30" as="alternateBounds" />
          </mxGeometry>
        </mxCell>
        <mxCell id="z2PNZBZcIhWz65c71THJ-34" value="Ingreso de datos de control" style="rounded=1;whiteSpace=wrap;html=1;" parent="z2PNZBZcIhWz65c71THJ-33" vertex="1">
          <mxGeometry x="25" y="35" width="120" height="60" as="geometry" />
        </mxCell>
        <mxCell id="z2PNZBZcIhWz65c71THJ-35" value="Revisión de histórico de reparaciones" style="rounded=1;whiteSpace=wrap;html=1;" parent="z2PNZBZcIhWz65c71THJ-33" vertex="1">
          <mxGeometry x="157" y="35" width="120" height="60" as="geometry" />
        </mxCell>
        <mxCell id="z2PNZBZcIhWz65c71THJ-36" value="Verificación de reportes de consumos" style="rounded=1;whiteSpace=wrap;html=1;" parent="z2PNZBZcIhWz65c71THJ-33" vertex="1">
          <mxGeometry x="288" y="35" width="120" height="60" as="geometry" />
        </mxCell>
        <mxCell id="z2PNZBZcIhWz65c71THJ-37" value="Reparación de maquinaria (mayores)" style="rounded=1;whiteSpace=wrap;html=1;" parent="z2PNZBZcIhWz65c71THJ-33" vertex="1">
          <mxGeometry x="420" y="35" width="120" height="60" as="geometry" />
        </mxCell>
        <mxCell id="z2PNZBZcIhWz65c71THJ-38" value="Control-07. Finanzas y Contabilidad" style="swimlane;fillColor=#FFC000;" parent="z2PNZBZcIhWz65c71THJ-30" vertex="1">
          <mxGeometry x="954" y="43" width="285" height="110" as="geometry">
            <mxRectangle x="35" y="220" width="230" height="30" as="alternateBounds" />
          </mxGeometry>
        </mxCell>
        <mxCell id="z2PNZBZcIhWz65c71THJ-39" value="Control de saldos de proveedores" style="rounded=1;whiteSpace=wrap;html=1;" parent="z2PNZBZcIhWz65c71THJ-38" vertex="1">
          <mxGeometry x="10" y="34" width="120" height="60" as="geometry" />
        </mxCell>
        <mxCell id="z2PNZBZcIhWz65c71THJ-40" value="Validación de pagos repetidos" style="rounded=1;whiteSpace=wrap;html=1;" parent="z2PNZBZcIhWz65c71THJ-38" vertex="1">
          <mxGeometry x="151" y="34" width="120" height="60" as="geometry" />
        </mxCell>
        <mxCell id="z2PNZBZcIhWz65c71THJ-41" value="Control-13. Legal y Cumplimiento" style="swimlane;fillColor=#FFC000;" parent="z2PNZBZcIhWz65c71THJ-30" vertex="1">
          <mxGeometry x="1296" y="43" width="220" height="110" as="geometry">
            <mxRectangle x="40" y="140" width="220" height="30" as="alternateBounds" />
          </mxGeometry>
        </mxCell>
        <mxCell id="z2PNZBZcIhWz65c71THJ-42" value="Control de saldo de volumen INAB" style="rounded=1;whiteSpace=wrap;html=1;" parent="z2PNZBZcIhWz65c71THJ-41" vertex="1">
          <mxGeometry x="49" y="34" width="120" height="60" as="geometry" />
        </mxCell>
        <mxCell id="z2PNZBZcIhWz65c71THJ-43" value="Estratégico (8)" style="swimlane;fillColor=#002060;fontColor=#FFFFFF;" parent="1" vertex="1">
          <mxGeometry x="151" y="142" width="1310" height="420" as="geometry">
            <mxRectangle x="80" y="120" width="100" height="30" as="alternateBounds" />
          </mxGeometry>
        </mxCell>
        <mxCell id="z2PNZBZcIhWz65c71THJ-47" value="Estrategico-02. Producción Ganadera" style="swimlane;fillColor=#FFC000;" parent="z2PNZBZcIhWz65c71THJ-43" vertex="1">
          <mxGeometry x="240" y="170" width="310" height="110" as="geometry">
            <mxRectangle x="290" y="170" width="240" height="30" as="alternateBounds" />
          </mxGeometry>
        </mxCell>
        <mxCell id="z2PNZBZcIhWz65c71THJ-48" value="Otros trabajos por especificar en ganado" style="rounded=1;whiteSpace=wrap;html=1;" parent="z2PNZBZcIhWz65c71THJ-47" vertex="1">
          <mxGeometry x="18" y="32" width="120" height="60" as="geometry" />
        </mxCell>
        <mxCell id="z2PNZBZcIhWz65c71THJ-49" value="Pesa de ganado" style="rounded=1;whiteSpace=wrap;html=1;" parent="z2PNZBZcIhWz65c71THJ-47" vertex="1">
          <mxGeometry x="153" y="32" width="120" height="60" as="geometry" />
        </mxCell>
        <mxCell id="z2PNZBZcIhWz65c71THJ-50" value="Estrategico-03. Producción Forestal y Maderera" style="swimlane;fillColor=#FFC000;" parent="z2PNZBZcIhWz65c71THJ-43" vertex="1">
          <mxGeometry x="16" y="50" width="684" height="100" as="geometry">
            <mxRectangle x="265" y="30" width="300" height="30" as="alternateBounds" />
          </mxGeometry>
        </mxCell>
        <mxCell id="z2PNZBZcIhWz65c71THJ-51" value="Clasificación de calidad de maderas" style="rounded=1;whiteSpace=wrap;html=1;" parent="z2PNZBZcIhWz65c71THJ-50" vertex="1">
          <mxGeometry x="276" y="31" width="120" height="60" as="geometry" />
        </mxCell>
        <mxCell id="z2PNZBZcIhWz65c71THJ-52" value="Siembra de pilones - Melina" style="rounded=1;whiteSpace=wrap;html=1;" parent="z2PNZBZcIhWz65c71THJ-50" vertex="1">
          <mxGeometry x="409" y="31" width="120" height="60" as="geometry" />
        </mxCell>
        <mxCell id="z2PNZBZcIhWz65c71THJ-53" value="Siembra de semilla - Melina" style="rounded=1;whiteSpace=wrap;html=1;" parent="z2PNZBZcIhWz65c71THJ-50" vertex="1">
          <mxGeometry x="540" y="31" width="120" height="60" as="geometry" />
        </mxCell>
        <mxCell id="z2PNZBZcIhWz65c71THJ-54" value="Planificación de tala" style="rounded=1;whiteSpace=wrap;html=1;" parent="z2PNZBZcIhWz65c71THJ-50" vertex="1">
          <mxGeometry x="10" y="31" width="120" height="60" as="geometry" />
        </mxCell>
        <mxCell id="z2PNZBZcIhWz65c71THJ-55" value="Tala y Corte final" style="rounded=1;whiteSpace=wrap;html=1;" parent="z2PNZBZcIhWz65c71THJ-50" vertex="1">
          <mxGeometry x="142" y="31" width="120" height="60" as="geometry" />
        </mxCell>
        <mxCell id="z2PNZBZcIhWz65c71THJ-56" value="Estrategico-05. Control de Calidad" style="swimlane;fillColor=#FFC000;" parent="z2PNZBZcIhWz65c71THJ-43" vertex="1">
          <mxGeometry x="12.5" y="170" width="210" height="110" as="geometry">
            <mxRectangle x="20" y="150" width="220" height="30" as="alternateBounds" />
          </mxGeometry>
        </mxCell>
        <mxCell id="z2PNZBZcIhWz65c71THJ-57" value="Supervisión de proceso general de transformación" style="rounded=1;whiteSpace=wrap;html=1;" parent="z2PNZBZcIhWz65c71THJ-56" vertex="1">
          <mxGeometry x="37.5" y="32" width="120" height="60" as="geometry" />
        </mxCell>
        <mxCell id="z2PNZBZcIhWz65c71THJ-58" value="Estrategico-06. Ventas y Marketing" style="swimlane;fillColor=#FFC000;" parent="z2PNZBZcIhWz65c71THJ-43" vertex="1">
          <mxGeometry x="563" y="194" width="697" height="190" as="geometry">
            <mxRectangle x="20" y="180" width="230" height="30" as="alternateBounds" />
          </mxGeometry>
        </mxCell>
        <mxCell id="z2PNZBZcIhWz65c71THJ-59" value="Arrendamiento de tierras para siembra de caña" style="rounded=1;whiteSpace=wrap;html=1;" parent="z2PNZBZcIhWz65c71THJ-58" vertex="1">
          <mxGeometry x="147" y="106" width="120" height="60" as="geometry" />
        </mxCell>
        <mxCell id="z2PNZBZcIhWz65c71THJ-60" value="Arrendamiento de tierras para siembra de maiz" style="rounded=1;whiteSpace=wrap;html=1;" parent="z2PNZBZcIhWz65c71THJ-58" vertex="1">
          <mxGeometry x="558" y="34" width="120" height="60" as="geometry" />
        </mxCell>
        <mxCell id="z2PNZBZcIhWz65c71THJ-61" value="Seguimiento a terrenos con arrendatario" style="rounded=1;whiteSpace=wrap;html=1;" parent="z2PNZBZcIhWz65c71THJ-58" vertex="1">
          <mxGeometry x="10" y="34" width="120" height="60" as="geometry" />
        </mxCell>
        <mxCell id="z2PNZBZcIhWz65c71THJ-62" value="Venta de ganado" style="rounded=1;whiteSpace=wrap;html=1;" parent="z2PNZBZcIhWz65c71THJ-58" vertex="1">
          <mxGeometry x="147" y="34" width="120" height="60" as="geometry" />
        </mxCell>
        <mxCell id="z2PNZBZcIhWz65c71THJ-63" value="Busqueda de clientes" style="rounded=1;whiteSpace=wrap;html=1;" parent="z2PNZBZcIhWz65c71THJ-58" vertex="1">
          <mxGeometry x="284" y="34" width="120" height="60" as="geometry" />
        </mxCell>
        <mxCell id="z2PNZBZcIhWz65c71THJ-64" value="Definición de precio" style="rounded=1;whiteSpace=wrap;html=1;" parent="z2PNZBZcIhWz65c71THJ-58" vertex="1">
          <mxGeometry x="421" y="34" width="120" height="60" as="geometry" />
        </mxCell>
        <mxCell id="z2PNZBZcIhWz65c71THJ-65" value="Gestión de Clientes recurrentes" style="rounded=1;whiteSpace=wrap;html=1;" parent="z2PNZBZcIhWz65c71THJ-58" vertex="1">
          <mxGeometry x="10" y="106" width="120" height="60" as="geometry" />
        </mxCell>
        <mxCell id="z2PNZBZcIhWz65c71THJ-66" value="Estrategico-09. Investigación y Desarrollo" style="swimlane;fillColor=#FFC000;" parent="z2PNZBZcIhWz65c71THJ-43" vertex="1">
          <mxGeometry x="1005" y="50" width="280" height="100" as="geometry">
            <mxRectangle x="20" y="220" width="260" height="30" as="alternateBounds" />
          </mxGeometry>
        </mxCell>
        <mxCell id="z2PNZBZcIhWz65c71THJ-67" value="Innovación (RyD forestal)" style="rounded=1;whiteSpace=wrap;html=1;" parent="z2PNZBZcIhWz65c71THJ-66" vertex="1">
          <mxGeometry x="70" y="31" width="120" height="60" as="geometry" />
        </mxCell>
        <mxCell id="z2PNZBZcIhWz65c71THJ-68" value="Estrategico-12. Compras y Suministros" style="swimlane;fillColor=#FFC000;" parent="z2PNZBZcIhWz65c71THJ-43" vertex="1">
          <mxGeometry x="29" y="300" width="245" height="110" as="geometry">
            <mxRectangle x="15" y="300" width="250" height="30" as="alternateBounds" />
          </mxGeometry>
        </mxCell>
        <mxCell id="z2PNZBZcIhWz65c71THJ-69" value="Compra de semilla - Melina" style="rounded=1;whiteSpace=wrap;html=1;" parent="z2PNZBZcIhWz65c71THJ-68" vertex="1">
          <mxGeometry x="55" y="37" width="120" height="60" as="geometry" />
        </mxCell>
        <mxCell id="z2PNZBZcIhWz65c71THJ-70" value="Estrategico-13. Legal y Cumplimiento" style="swimlane;fillColor=#FFC000;" parent="z2PNZBZcIhWz65c71THJ-43" vertex="1">
          <mxGeometry x="289" y="300" width="240" height="110" as="geometry">
            <mxRectangle x="20" y="260" width="240" height="30" as="alternateBounds" />
          </mxGeometry>
        </mxCell>
        <mxCell id="z2PNZBZcIhWz65c71THJ-71" value="Licencia de tratamiento termico de tarimas con MAGA" style="rounded=1;whiteSpace=wrap;html=1;" parent="z2PNZBZcIhWz65c71THJ-70" vertex="1">
          <mxGeometry x="56" y="35" width="120" height="60" as="geometry" />
        </mxCell>
        <mxCell id="z2PNZBZcIhWz65c71THJ-44" value="Estrategico-01. Dirección General" style="swimlane;fillColor=#FFC000;" parent="z2PNZBZcIhWz65c71THJ-43" vertex="1">
          <mxGeometry x="714" y="50" width="280" height="100" as="geometry">
            <mxRectangle x="20" y="40" width="220" height="30" as="alternateBounds" />
          </mxGeometry>
        </mxCell>
        <mxCell id="z2PNZBZcIhWz65c71THJ-45" value="Organización de eventos en la finca" style="rounded=1;whiteSpace=wrap;html=1;" parent="z2PNZBZcIhWz65c71THJ-44" vertex="1">
          <mxGeometry x="20" y="31" width="120" height="60" as="geometry" />
        </mxCell>
        <mxCell id="z2PNZBZcIhWz65c71THJ-46" value="Seguimiento de Asociación de Ganaderos" style="rounded=1;whiteSpace=wrap;html=1;" parent="z2PNZBZcIhWz65c71THJ-44" vertex="1">
          <mxGeometry x="150" y="31" width="120" height="60" as="geometry" />
        </mxCell>
        <mxCell id="z2PNZBZcIhWz65c71THJ-72" value="Operativo (59)" style="swimlane;fillColor=#002060;fontColor=#FFFFFF;" parent="1" vertex="1">
          <mxGeometry x="151" y="564" width="1310" height="860" as="geometry">
            <mxRectangle x="110" y="800" width="90" height="30" as="alternateBounds" />
          </mxGeometry>
        </mxCell>
        <mxCell id="z2PNZBZcIhWz65c71THJ-73" value="Operativo-02. Producción Ganadera" style="swimlane;fontColor=#000000;fillColor=#FFC000;" parent="z2PNZBZcIhWz65c71THJ-72" vertex="1">
          <mxGeometry x="30" y="725" width="1260" height="105" as="geometry">
            <mxRectangle x="25" y="289" width="230" height="30" as="alternateBounds" />
          </mxGeometry>
        </mxCell>
        <mxCell id="z2PNZBZcIhWz65c71THJ-74" value="Alimentación de de ganado con pasto" style="rounded=1;whiteSpace=wrap;html=1;" parent="z2PNZBZcIhWz65c71THJ-73" vertex="1">
          <mxGeometry x="383" y="30" width="120" height="60" as="geometry" />
        </mxCell>
        <mxCell id="z2PNZBZcIhWz65c71THJ-75" value="Alimentación de ganado de engorde" style="rounded=1;whiteSpace=wrap;html=1;" parent="z2PNZBZcIhWz65c71THJ-73" vertex="1">
          <mxGeometry x="632" y="30" width="120" height="60" as="geometry" />
        </mxCell>
        <mxCell id="z2PNZBZcIhWz65c71THJ-76" value="Alimentación de ganado en bosque" style="rounded=1;whiteSpace=wrap;html=1;" parent="z2PNZBZcIhWz65c71THJ-73" vertex="1">
          <mxGeometry x="10" y="30" width="120" height="60" as="geometry" />
        </mxCell>
        <mxCell id="z2PNZBZcIhWz65c71THJ-77" value="Fabricación de concentrado" style="rounded=1;whiteSpace=wrap;html=1;" parent="z2PNZBZcIhWz65c71THJ-73" vertex="1">
          <mxGeometry x="134" y="30" width="120" height="60" as="geometry" />
        </mxCell>
        <mxCell id="z2PNZBZcIhWz65c71THJ-78" value="Mantemiento de campos de pastoreo" style="rounded=1;whiteSpace=wrap;html=1;" parent="z2PNZBZcIhWz65c71THJ-73" vertex="1">
          <mxGeometry x="259" y="30" width="120" height="60" as="geometry" />
        </mxCell>
        <mxCell id="z2PNZBZcIhWz65c71THJ-79" value="Crianza de ganado" style="rounded=1;whiteSpace=wrap;html=1;" parent="z2PNZBZcIhWz65c71THJ-73" vertex="1">
          <mxGeometry x="507" y="30" width="120" height="60" as="geometry" />
        </mxCell>
        <mxCell id="z2PNZBZcIhWz65c71THJ-80" value="Destete de ganado" style="rounded=1;whiteSpace=wrap;html=1;" parent="z2PNZBZcIhWz65c71THJ-73" vertex="1">
          <mxGeometry x="1129" y="30" width="120" height="60" as="geometry" />
        </mxCell>
        <mxCell id="z2PNZBZcIhWz65c71THJ-81" value="Pastoreo de ganado" style="rounded=1;whiteSpace=wrap;html=1;" parent="z2PNZBZcIhWz65c71THJ-73" vertex="1">
          <mxGeometry x="756" y="30" width="120" height="60" as="geometry" />
        </mxCell>
        <mxCell id="z2PNZBZcIhWz65c71THJ-82" value="Registro de partos" style="rounded=1;whiteSpace=wrap;html=1;" parent="z2PNZBZcIhWz65c71THJ-73" vertex="1">
          <mxGeometry x="880" y="30" width="120" height="60" as="geometry" />
        </mxCell>
        <mxCell id="z2PNZBZcIhWz65c71THJ-83" value="Vacunación" style="rounded=1;whiteSpace=wrap;html=1;" parent="z2PNZBZcIhWz65c71THJ-73" vertex="1">
          <mxGeometry x="1005" y="30" width="120" height="60" as="geometry" />
        </mxCell>
        <mxCell id="z2PNZBZcIhWz65c71THJ-84" value="Operativo-03. Producción Forestal y Maderera" style="swimlane;fontColor=#000000;fillColor=#FFC000;" parent="z2PNZBZcIhWz65c71THJ-72" vertex="1">
          <mxGeometry x="30" y="480" width="680" height="231" as="geometry">
            <mxRectangle y="189" width="290" height="30" as="alternateBounds" />
          </mxGeometry>
        </mxCell>
        <mxCell id="z2PNZBZcIhWz65c71THJ-85" value="Afilar hojas de sierras" style="rounded=1;whiteSpace=wrap;html=1;" parent="z2PNZBZcIhWz65c71THJ-84" vertex="1">
          <mxGeometry x="278" y="30" width="120" height="60" as="geometry" />
        </mxCell>
        <mxCell id="z2PNZBZcIhWz65c71THJ-86" value="Numeración y medición de trozas" style="rounded=1;whiteSpace=wrap;html=1;" parent="z2PNZBZcIhWz65c71THJ-84" vertex="1">
          <mxGeometry x="546" y="30" width="120" height="60" as="geometry" />
        </mxCell>
        <mxCell id="z2PNZBZcIhWz65c71THJ-87" value="Registro y actualización de inventario de trozas" style="rounded=1;whiteSpace=wrap;html=1;" parent="z2PNZBZcIhWz65c71THJ-84" vertex="1">
          <mxGeometry x="10" y="30" width="120" height="60" as="geometry" />
        </mxCell>
        <mxCell id="z2PNZBZcIhWz65c71THJ-88" value="Medir diametro de arboles" style="rounded=1;whiteSpace=wrap;html=1;" parent="z2PNZBZcIhWz65c71THJ-84" vertex="1">
          <mxGeometry x="144" y="30" width="120" height="60" as="geometry" />
        </mxCell>
        <mxCell id="z2PNZBZcIhWz65c71THJ-89" value="Raleo de bosque No. 1 (6 meses)" style="rounded=1;whiteSpace=wrap;html=1;" parent="z2PNZBZcIhWz65c71THJ-84" vertex="1">
          <mxGeometry x="275" y="162" width="120" height="60" as="geometry" />
        </mxCell>
        <mxCell id="z2PNZBZcIhWz65c71THJ-90" value="Raleo de bosque No. 2 (3 años)" style="rounded=1;whiteSpace=wrap;html=1;" parent="z2PNZBZcIhWz65c71THJ-84" vertex="1">
          <mxGeometry x="412" y="30" width="120" height="60" as="geometry" />
        </mxCell>
        <mxCell id="z2PNZBZcIhWz65c71THJ-91" value="Fabricación de tarimas" style="rounded=1;whiteSpace=wrap;html=1;" parent="z2PNZBZcIhWz65c71THJ-84" vertex="1">
          <mxGeometry x="546" y="96" width="120" height="60" as="geometry" />
        </mxCell>
        <mxCell id="z2PNZBZcIhWz65c71THJ-92" value="Corte de Troza en aserradero" style="rounded=1;whiteSpace=wrap;html=1;" parent="z2PNZBZcIhWz65c71THJ-84" vertex="1">
          <mxGeometry x="10" y="96" width="120" height="60" as="geometry" />
        </mxCell>
        <mxCell id="z2PNZBZcIhWz65c71THJ-93" value="Fabricación (Packing List)" style="rounded=1;whiteSpace=wrap;html=1;" parent="z2PNZBZcIhWz65c71THJ-84" vertex="1">
          <mxGeometry x="144" y="96" width="120" height="60" as="geometry" />
        </mxCell>
        <mxCell id="z2PNZBZcIhWz65c71THJ-94" value="Gestión de ordenes de entrega" style="rounded=1;whiteSpace=wrap;html=1;" parent="z2PNZBZcIhWz65c71THJ-84" vertex="1">
          <mxGeometry x="278" y="96" width="120" height="60" as="geometry" />
        </mxCell>
        <mxCell id="z2PNZBZcIhWz65c71THJ-95" value="Moldura de tablas" style="rounded=1;whiteSpace=wrap;html=1;" parent="z2PNZBZcIhWz65c71THJ-84" vertex="1">
          <mxGeometry x="412" y="96" width="120" height="60" as="geometry" />
        </mxCell>
        <mxCell id="z2PNZBZcIhWz65c71THJ-96" value="Secado en horno" style="rounded=1;whiteSpace=wrap;html=1;" parent="z2PNZBZcIhWz65c71THJ-84" vertex="1">
          <mxGeometry x="143" y="162" width="120" height="60" as="geometry" />
        </mxCell>
        <mxCell id="z2PNZBZcIhWz65c71THJ-97" value="Secado natural" style="rounded=1;whiteSpace=wrap;html=1;" parent="z2PNZBZcIhWz65c71THJ-84" vertex="1">
          <mxGeometry x="10" y="162" width="120" height="60" as="geometry" />
        </mxCell>
        <mxCell id="z2PNZBZcIhWz65c71THJ-98" value="Operativo-04. Operaciones y Logística" style="swimlane;fontColor=#000000;fillColor=#FFC000;" parent="z2PNZBZcIhWz65c71THJ-72" vertex="1">
          <mxGeometry x="9" y="39" width="771" height="250" as="geometry">
            <mxRectangle x="80" y="39" width="250" height="30" as="alternateBounds" />
          </mxGeometry>
        </mxCell>
        <mxCell id="z2PNZBZcIhWz65c71THJ-99" value="Apilado de tablas dentro de aserradero" style="rounded=1;whiteSpace=wrap;html=1;" parent="z2PNZBZcIhWz65c71THJ-98" vertex="1">
          <mxGeometry x="136" y="34" width="120" height="60" as="geometry" />
        </mxCell>
        <mxCell id="z2PNZBZcIhWz65c71THJ-100" value="Gestión de flota de vehículos administrativos" style="rounded=1;whiteSpace=wrap;html=1;" parent="z2PNZBZcIhWz65c71THJ-98" vertex="1">
          <mxGeometry x="262" y="34" width="120" height="60" as="geometry" />
        </mxCell>
        <mxCell id="z2PNZBZcIhWz65c71THJ-101" value="Abastecimiento y control de consumo de quimicos" style="rounded=1;whiteSpace=wrap;html=1;" parent="z2PNZBZcIhWz65c71THJ-98" vertex="1">
          <mxGeometry x="388" y="34" width="120" height="60" as="geometry" />
        </mxCell>
        <mxCell id="z2PNZBZcIhWz65c71THJ-102" value="Transporte de combustible para otros cascos" style="rounded=1;whiteSpace=wrap;html=1;" parent="z2PNZBZcIhWz65c71THJ-98" vertex="1">
          <mxGeometry x="514" y="34" width="120" height="60" as="geometry" />
        </mxCell>
        <mxCell id="z2PNZBZcIhWz65c71THJ-103" value="Entrega de hojas de maquinaria" style="rounded=1;whiteSpace=wrap;html=1;" parent="z2PNZBZcIhWz65c71THJ-98" vertex="1">
          <mxGeometry x="10" y="34" width="120" height="60" as="geometry" />
        </mxCell>
        <mxCell id="z2PNZBZcIhWz65c71THJ-104" value="Gestión de cercas" style="rounded=1;whiteSpace=wrap;html=1;" parent="z2PNZBZcIhWz65c71THJ-98" vertex="1">
          <mxGeometry x="640" y="34" width="120" height="60" as="geometry" />
        </mxCell>
        <mxCell id="z2PNZBZcIhWz65c71THJ-105" value="Mantenimiento de maquinaria" style="rounded=1;whiteSpace=wrap;html=1;" parent="z2PNZBZcIhWz65c71THJ-98" vertex="1">
          <mxGeometry x="325" y="103" width="120" height="60" as="geometry" />
        </mxCell>
        <mxCell id="z2PNZBZcIhWz65c71THJ-106" value="Digitalización de hojas de maquinaria" style="rounded=1;whiteSpace=wrap;html=1;" parent="z2PNZBZcIhWz65c71THJ-98" vertex="1">
          <mxGeometry x="483" y="103" width="120" height="60" as="geometry" />
        </mxCell>
        <mxCell id="z2PNZBZcIhWz65c71THJ-107" value="Distribución de uso de maquinaria" style="rounded=1;whiteSpace=wrap;html=1;" parent="z2PNZBZcIhWz65c71THJ-98" vertex="1">
          <mxGeometry x="640" y="103" width="120" height="60" as="geometry" />
        </mxCell>
        <mxCell id="z2PNZBZcIhWz65c71THJ-108" value="Operación de Maquinaria forestal" style="rounded=1;whiteSpace=wrap;html=1;" parent="z2PNZBZcIhWz65c71THJ-98" vertex="1">
          <mxGeometry x="10" y="103" width="120" height="60" as="geometry" />
        </mxCell>
        <mxCell id="z2PNZBZcIhWz65c71THJ-109" value="Gestión administrativa de taller" style="rounded=1;whiteSpace=wrap;html=1;" parent="z2PNZBZcIhWz65c71THJ-98" vertex="1">
          <mxGeometry x="168" y="103" width="120" height="60" as="geometry" />
        </mxCell>
        <mxCell id="z2PNZBZcIhWz65c71THJ-110" value="Reparación de maquinaria (menores)" style="rounded=1;whiteSpace=wrap;html=1;" parent="z2PNZBZcIhWz65c71THJ-98" vertex="1">
          <mxGeometry x="325" y="175" width="120" height="60" as="geometry" />
        </mxCell>
        <mxCell id="z2PNZBZcIhWz65c71THJ-111" value="Entrega de ganado" style="rounded=1;whiteSpace=wrap;html=1;" parent="z2PNZBZcIhWz65c71THJ-98" vertex="1">
          <mxGeometry x="483" y="175" width="120" height="60" as="geometry" />
        </mxCell>
        <mxCell id="z2PNZBZcIhWz65c71THJ-112" value="Transporte de leña" style="rounded=1;whiteSpace=wrap;html=1;" parent="z2PNZBZcIhWz65c71THJ-98" vertex="1">
          <mxGeometry x="640" y="175" width="120" height="60" as="geometry" />
        </mxCell>
        <mxCell id="z2PNZBZcIhWz65c71THJ-113" value="Transporte de producto primario" style="rounded=1;whiteSpace=wrap;html=1;" parent="z2PNZBZcIhWz65c71THJ-98" vertex="1">
          <mxGeometry x="10" y="175" width="120" height="60" as="geometry" />
        </mxCell>
        <mxCell id="z2PNZBZcIhWz65c71THJ-114" value="Transporte de trocilla para tarima" style="rounded=1;whiteSpace=wrap;html=1;" parent="z2PNZBZcIhWz65c71THJ-98" vertex="1">
          <mxGeometry x="168" y="175" width="120" height="60" as="geometry" />
        </mxCell>
        <mxCell id="z2PNZBZcIhWz65c71THJ-115" value="Operativo-05. Control de Calidad" style="swimlane;fontColor=#000000;fillColor=#FFC000;" parent="z2PNZBZcIhWz65c71THJ-72" vertex="1">
          <mxGeometry x="839" y="39" width="430" height="110" as="geometry">
            <mxRectangle x="40" y="270" width="220" height="30" as="alternateBounds" />
          </mxGeometry>
        </mxCell>
        <mxCell id="z2PNZBZcIhWz65c71THJ-116" value="Control de calidad de ganado" style="rounded=1;whiteSpace=wrap;html=1;" parent="z2PNZBZcIhWz65c71THJ-115" vertex="1">
          <mxGeometry x="20" y="35" width="120" height="60" as="geometry" />
        </mxCell>
        <mxCell id="z2PNZBZcIhWz65c71THJ-117" value="Supervición de calidad de tablas (molduras)" style="rounded=1;whiteSpace=wrap;html=1;" parent="z2PNZBZcIhWz65c71THJ-115" vertex="1">
          <mxGeometry x="155" y="35" width="120" height="60" as="geometry" />
        </mxCell>
        <mxCell id="z2PNZBZcIhWz65c71THJ-118" value="Supervisión de Corte" style="rounded=1;whiteSpace=wrap;html=1;" parent="z2PNZBZcIhWz65c71THJ-115" vertex="1">
          <mxGeometry x="285" y="35" width="120" height="60" as="geometry" />
        </mxCell>
        <mxCell id="z2PNZBZcIhWz65c71THJ-119" value="Operativo-06. Ventas y Marketing" style="swimlane;fontColor=#000000;fillColor=#FFC000;" parent="z2PNZBZcIhWz65c71THJ-72" vertex="1">
          <mxGeometry x="839" y="480" width="420" height="180" as="geometry">
            <mxRectangle x="40" y="370" width="220" height="30" as="alternateBounds" />
          </mxGeometry>
        </mxCell>
        <mxCell id="z2PNZBZcIhWz65c71THJ-120" value="Clasificación y venta de animales de desecho" style="rounded=1;whiteSpace=wrap;html=1;" parent="z2PNZBZcIhWz65c71THJ-119" vertex="1">
          <mxGeometry x="10" y="36" width="120" height="60" as="geometry" />
        </mxCell>
        <mxCell id="z2PNZBZcIhWz65c71THJ-121" value="Gestión de rechazos" style="rounded=1;whiteSpace=wrap;html=1;" parent="z2PNZBZcIhWz65c71THJ-119" vertex="1">
          <mxGeometry x="143" y="36" width="120" height="60" as="geometry" />
        </mxCell>
        <mxCell id="z2PNZBZcIhWz65c71THJ-122" value="Venta de madera primaria (aserradero)" style="rounded=1;whiteSpace=wrap;html=1;" parent="z2PNZBZcIhWz65c71THJ-119" vertex="1">
          <mxGeometry x="276" y="36" width="120" height="60" as="geometry" />
        </mxCell>
        <mxCell id="z2PNZBZcIhWz65c71THJ-123" value="Ventas - Leña" style="rounded=1;whiteSpace=wrap;html=1;" parent="z2PNZBZcIhWz65c71THJ-119" vertex="1">
          <mxGeometry x="10" y="110" width="120" height="60" as="geometry" />
        </mxCell>
        <mxCell id="z2PNZBZcIhWz65c71THJ-124" value="Ventas - Trocilla para tarima" style="rounded=1;whiteSpace=wrap;html=1;" parent="z2PNZBZcIhWz65c71THJ-119" vertex="1">
          <mxGeometry x="145" y="110" width="120" height="60" as="geometry" />
        </mxCell>
        <mxCell id="z2PNZBZcIhWz65c71THJ-125" value="Operativo-07. Finanzas y Contabilidad" style="swimlane;fontColor=#000000;fillColor=#FFC000;" parent="z2PNZBZcIhWz65c71THJ-72" vertex="1">
          <mxGeometry x="792" y="295" width="240" height="110" as="geometry">
            <mxRectangle x="40" y="340" width="240" height="30" as="alternateBounds" />
          </mxGeometry>
        </mxCell>
        <mxCell id="z2PNZBZcIhWz65c71THJ-126" value="Gestión de impuestos" style="rounded=1;whiteSpace=wrap;html=1;" parent="z2PNZBZcIhWz65c71THJ-125" vertex="1">
          <mxGeometry x="60.5" y="35" width="120" height="60" as="geometry" />
        </mxCell>
        <mxCell id="z2PNZBZcIhWz65c71THJ-127" value="Operativo-08. Recursos Humanos" style="swimlane;fontColor=#000000;fillColor=#FFC000;" parent="z2PNZBZcIhWz65c71THJ-72" vertex="1">
          <mxGeometry x="1070" y="295" width="220" height="110" as="geometry">
            <mxRectangle x="40" y="310" width="220" height="30" as="alternateBounds" />
          </mxGeometry>
        </mxCell>
        <mxCell id="z2PNZBZcIhWz65c71THJ-128" value="Pago de planillas" style="rounded=1;whiteSpace=wrap;html=1;" parent="z2PNZBZcIhWz65c71THJ-127" vertex="1">
          <mxGeometry x="56" y="35" width="120" height="60" as="geometry" />
        </mxCell>
        <mxCell id="z2PNZBZcIhWz65c71THJ-129" value="Operativo-10. Gestión Ambiental y Sostenibilidad" style="swimlane;fontColor=#000000;fillColor=#FFC000;" parent="z2PNZBZcIhWz65c71THJ-72" vertex="1">
          <mxGeometry x="1005" y="160" width="294" height="110" as="geometry">
            <mxRectangle x="40" y="290" width="300" height="30" as="alternateBounds" />
          </mxGeometry>
        </mxCell>
        <mxCell id="z2PNZBZcIhWz65c71THJ-130" value="Control de merma" style="rounded=1;whiteSpace=wrap;html=1;" parent="z2PNZBZcIhWz65c71THJ-129" vertex="1">
          <mxGeometry x="84.5" y="34" width="120" height="60" as="geometry" />
        </mxCell>
        <mxCell id="z2PNZBZcIhWz65c71THJ-131" value="Operativo-13. Legal y Cumplimiento" style="swimlane;fontColor=#000000;fillColor=#FFC000;" parent="z2PNZBZcIhWz65c71THJ-72" vertex="1">
          <mxGeometry x="32" y="295" width="678" height="171" as="geometry">
            <mxRectangle x="380" y="89" width="230" height="30" as="alternateBounds" />
          </mxGeometry>
        </mxCell>
        <mxCell id="z2PNZBZcIhWz65c71THJ-132" value="Asignación de notas de envío de INAB" style="rounded=1;whiteSpace=wrap;html=1;" parent="z2PNZBZcIhWz65c71THJ-131" vertex="1">
          <mxGeometry x="275" y="30" width="120" height="60" as="geometry" />
        </mxCell>
        <mxCell id="z2PNZBZcIhWz65c71THJ-133" value="Descarga de inventarios INAB" style="rounded=1;whiteSpace=wrap;html=1;" parent="z2PNZBZcIhWz65c71THJ-131" vertex="1">
          <mxGeometry x="540" y="30" width="120" height="60" as="geometry" />
        </mxCell>
        <mxCell id="z2PNZBZcIhWz65c71THJ-134" value="Envío físico de notas de envío a INAB" style="rounded=1;whiteSpace=wrap;html=1;" parent="z2PNZBZcIhWz65c71THJ-131" vertex="1">
          <mxGeometry x="10" y="30" width="120" height="60" as="geometry" />
        </mxCell>
        <mxCell id="z2PNZBZcIhWz65c71THJ-135" value="Gestiones varias en INAB - Tercerizadas" style="rounded=1;whiteSpace=wrap;html=1;" parent="z2PNZBZcIhWz65c71THJ-131" vertex="1">
          <mxGeometry x="143" y="30" width="120" height="60" as="geometry" />
        </mxCell>
        <mxCell id="z2PNZBZcIhWz65c71THJ-136" value="Registrar las notas usadas en sistema INAB" style="rounded=1;whiteSpace=wrap;html=1;" parent="z2PNZBZcIhWz65c71THJ-131" vertex="1">
          <mxGeometry x="275" y="99" width="120" height="60" as="geometry" />
        </mxCell>
        <mxCell id="z2PNZBZcIhWz65c71THJ-137" value="Solicitud de notas de envio INAB" style="rounded=1;whiteSpace=wrap;html=1;" parent="z2PNZBZcIhWz65c71THJ-131" vertex="1">
          <mxGeometry x="408" y="30" width="120" height="60" as="geometry" />
        </mxCell>
        <mxCell id="z2PNZBZcIhWz65c71THJ-138" value="Solicitud de volumen a INAB" style="rounded=1;whiteSpace=wrap;html=1;" parent="z2PNZBZcIhWz65c71THJ-131" vertex="1">
          <mxGeometry x="143" y="99" width="120" height="60" as="geometry" />
        </mxCell>
        <mxCell id="z2PNZBZcIhWz65c71THJ-139" value="Gestión de contratos de arrendamientos" style="rounded=1;whiteSpace=wrap;html=1;" parent="z2PNZBZcIhWz65c71THJ-131" vertex="1">
          <mxGeometry x="10" y="99" width="120" height="60" as="geometry" />
        </mxCell>
        <mxCell id="z2PNZBZcIhWz65c71THJ-140" value="Operativo-15. Gestión de Riesgos" style="swimlane;fontColor=#000000;fillColor=#FFC000;" parent="z2PNZBZcIhWz65c71THJ-72" vertex="1">
          <mxGeometry x="792" y="160" width="204" height="110" as="geometry">
            <mxRectangle x="40" y="40" width="220" height="30" as="alternateBounds" />
          </mxGeometry>
        </mxCell>
        <mxCell id="z2PNZBZcIhWz65c71THJ-141" value="Implementación de Seguridad Ocupacional" style="rounded=1;whiteSpace=wrap;html=1;" parent="z2PNZBZcIhWz65c71THJ-140" vertex="1">
          <mxGeometry x="51.5" y="38" width="120" height="60" as="geometry" />
        </mxCell>
        <mxCell id="z2PNZBZcIhWz65c71THJ-142" value="Soporte (37)" style="swimlane;startSize=23;fillColor=#002060;fontColor=#FFFFFF;" parent="1" vertex="1">
          <mxGeometry x="152" y="1425" width="1310" height="530" as="geometry">
            <mxRectangle x="110" y="1480" width="80" height="30" as="alternateBounds" />
          </mxGeometry>
        </mxCell>
        <mxCell id="z2PNZBZcIhWz65c71THJ-143" value="Soporte-03. Producción Forestal y Maderera" style="swimlane;fillColor=#FFC000;" parent="z2PNZBZcIhWz65c71THJ-142" vertex="1">
          <mxGeometry x="992" y="234" width="260" height="101" as="geometry">
            <mxRectangle x="40" y="80" width="280" height="30" as="alternateBounds" />
          </mxGeometry>
        </mxCell>
        <mxCell id="z2PNZBZcIhWz65c71THJ-144" value="Cálculo de volumen de trozas para pago motosierra" style="rounded=1;whiteSpace=wrap;html=1;" parent="z2PNZBZcIhWz65c71THJ-143" vertex="1">
          <mxGeometry x="61" y="33" width="120" height="60" as="geometry" />
        </mxCell>
        <mxCell id="z2PNZBZcIhWz65c71THJ-145" value="Soporte-04. Operaciones y Logística" style="swimlane;fillColor=#FFC000;" parent="z2PNZBZcIhWz65c71THJ-142" vertex="1">
          <mxGeometry x="7" y="40" width="412" height="180" as="geometry">
            <mxRectangle x="30" y="130" width="240" height="30" as="alternateBounds" />
          </mxGeometry>
        </mxCell>
        <mxCell id="z2PNZBZcIhWz65c71THJ-146" value="Revisión de trabajos en finca para pagos a empleados" style="rounded=1;whiteSpace=wrap;html=1;" parent="z2PNZBZcIhWz65c71THJ-145" vertex="1">
          <mxGeometry x="10" y="110" width="120" height="60" as="geometry" />
        </mxCell>
        <mxCell id="z2PNZBZcIhWz65c71THJ-147" value="Abastecimiento y control de consumo de combustibles" style="rounded=1;whiteSpace=wrap;html=1;" parent="z2PNZBZcIhWz65c71THJ-145" vertex="1">
          <mxGeometry x="146" y="110" width="120" height="60" as="geometry" />
        </mxCell>
        <mxCell id="z2PNZBZcIhWz65c71THJ-148" value="Control de mantenimientos de maquinaria" style="rounded=1;whiteSpace=wrap;html=1;" parent="z2PNZBZcIhWz65c71THJ-145" vertex="1">
          <mxGeometry x="10" y="40" width="120" height="60" as="geometry" />
        </mxCell>
        <mxCell id="z2PNZBZcIhWz65c71THJ-149" value="Entrega de leña para descuento (beneficio empleado)" style="rounded=1;whiteSpace=wrap;html=1;" parent="z2PNZBZcIhWz65c71THJ-145" vertex="1">
          <mxGeometry x="145" y="40" width="120" height="60" as="geometry" />
        </mxCell>
        <mxCell id="z2PNZBZcIhWz65c71THJ-150" value="Preparación y entrega de producto" style="rounded=1;whiteSpace=wrap;html=1;" parent="z2PNZBZcIhWz65c71THJ-145" vertex="1">
          <mxGeometry x="280" y="40" width="120" height="60" as="geometry" />
        </mxCell>
        <mxCell id="z2PNZBZcIhWz65c71THJ-151" value="Soporte-06. Ventas y Marketing" style="swimlane;fillColor=#FFC000;" parent="z2PNZBZcIhWz65c71THJ-142" vertex="1">
          <mxGeometry x="1087" y="70" width="205" height="101" as="geometry">
            <mxRectangle x="30" y="330" width="210" height="30" as="alternateBounds" />
          </mxGeometry>
        </mxCell>
        <mxCell id="z2PNZBZcIhWz65c71THJ-152" value="Seguimiento de facturación a clientes" style="rounded=1;whiteSpace=wrap;html=1;" parent="z2PNZBZcIhWz65c71THJ-151" vertex="1">
          <mxGeometry x="42.5" y="33" width="120" height="60" as="geometry" />
        </mxCell>
        <mxCell id="z2PNZBZcIhWz65c71THJ-153" value="Soporte-07. Finanzas y Contabilidad" style="swimlane;fillColor=#FFC000;" parent="z2PNZBZcIhWz65c71THJ-142" vertex="1">
          <mxGeometry x="129" y="350" width="1052" height="170" as="geometry">
            <mxRectangle x="35" y="380" width="230" height="30" as="alternateBounds" />
          </mxGeometry>
        </mxCell>
        <mxCell id="z2PNZBZcIhWz65c71THJ-154" value="Cobro de arrendamientos" style="rounded=1;whiteSpace=wrap;html=1;" parent="z2PNZBZcIhWz65c71THJ-153" vertex="1">
          <mxGeometry x="529" y="30" width="120" height="60" as="geometry" />
        </mxCell>
        <mxCell id="z2PNZBZcIhWz65c71THJ-155" value="Cobro de venta de ganado" style="rounded=1;whiteSpace=wrap;html=1;" parent="z2PNZBZcIhWz65c71THJ-153" vertex="1">
          <mxGeometry x="10" y="30" width="120" height="60" as="geometry" />
        </mxCell>
        <mxCell id="z2PNZBZcIhWz65c71THJ-156" value="Cobro de venta de madera" style="rounded=1;whiteSpace=wrap;html=1;" parent="z2PNZBZcIhWz65c71THJ-153" vertex="1">
          <mxGeometry x="140" y="30" width="120" height="60" as="geometry" />
        </mxCell>
        <mxCell id="z2PNZBZcIhWz65c71THJ-157" value="Envio y recepción de solicitudes de Contabilidad externa" style="rounded=1;whiteSpace=wrap;html=1;" parent="z2PNZBZcIhWz65c71THJ-153" vertex="1">
          <mxGeometry x="269" y="30" width="120" height="60" as="geometry" />
        </mxCell>
        <mxCell id="z2PNZBZcIhWz65c71THJ-158" value="Control de facturas" style="rounded=1;whiteSpace=wrap;html=1;" parent="z2PNZBZcIhWz65c71THJ-153" vertex="1">
          <mxGeometry x="399" y="30" width="120" height="60" as="geometry" />
        </mxCell>
        <mxCell id="z2PNZBZcIhWz65c71THJ-159" value="Emisión de facturas a clientes" style="rounded=1;whiteSpace=wrap;html=1;" parent="z2PNZBZcIhWz65c71THJ-153" vertex="1">
          <mxGeometry x="725" y="100" width="120" height="60" as="geometry" />
        </mxCell>
        <mxCell id="z2PNZBZcIhWz65c71THJ-160" value="Control de cheques y transferencias" style="rounded=1;whiteSpace=wrap;html=1;" parent="z2PNZBZcIhWz65c71THJ-153" vertex="1">
          <mxGeometry x="218" y="100" width="120" height="60" as="geometry" />
        </mxCell>
        <mxCell id="z2PNZBZcIhWz65c71THJ-161" value="Ejecución de la cuenta por pagar" style="rounded=1;whiteSpace=wrap;html=1;" parent="z2PNZBZcIhWz65c71THJ-153" vertex="1">
          <mxGeometry x="345" y="100" width="120" height="60" as="geometry" />
        </mxCell>
        <mxCell id="z2PNZBZcIhWz65c71THJ-162" value="Emisión de cheques" style="rounded=1;whiteSpace=wrap;html=1;" parent="z2PNZBZcIhWz65c71THJ-153" vertex="1">
          <mxGeometry x="472" y="100" width="120" height="60" as="geometry" />
        </mxCell>
        <mxCell id="z2PNZBZcIhWz65c71THJ-163" value="Entrega de cheques" style="rounded=1;whiteSpace=wrap;html=1;" parent="z2PNZBZcIhWz65c71THJ-153" vertex="1">
          <mxGeometry x="598" y="100" width="120" height="60" as="geometry" />
        </mxCell>
        <mxCell id="z2PNZBZcIhWz65c71THJ-164" value="Pago de motosierra" style="rounded=1;whiteSpace=wrap;html=1;" parent="z2PNZBZcIhWz65c71THJ-153" vertex="1">
          <mxGeometry x="918" y="30" width="120" height="60" as="geometry" />
        </mxCell>
        <mxCell id="z2PNZBZcIhWz65c71THJ-165" value="Pago de proveedores" style="rounded=1;whiteSpace=wrap;html=1;" parent="z2PNZBZcIhWz65c71THJ-153" vertex="1">
          <mxGeometry x="659" y="30" width="120" height="60" as="geometry" />
        </mxCell>
        <mxCell id="z2PNZBZcIhWz65c71THJ-166" value="Recepción de factura de proveedor" style="rounded=1;whiteSpace=wrap;html=1;" parent="z2PNZBZcIhWz65c71THJ-153" vertex="1">
          <mxGeometry x="788" y="30" width="120" height="60" as="geometry" />
        </mxCell>
        <mxCell id="z2PNZBZcIhWz65c71THJ-167" value="Soporte-08. Recursos Humanos" style="swimlane;fillColor=#FFC000;" parent="z2PNZBZcIhWz65c71THJ-142" vertex="1">
          <mxGeometry x="27" y="234" width="650" height="100" as="geometry">
            <mxRectangle x="35" y="280" width="210" height="30" as="alternateBounds" />
          </mxGeometry>
        </mxCell>
        <mxCell id="z2PNZBZcIhWz65c71THJ-168" value="Planificación de leña para empleados" style="rounded=1;whiteSpace=wrap;html=1;" parent="z2PNZBZcIhWz65c71THJ-167" vertex="1">
          <mxGeometry x="262" y="33" width="120" height="60" as="geometry" />
        </mxCell>
        <mxCell id="z2PNZBZcIhWz65c71THJ-169" value="Elaboración y carga de Planillas del IGSS" style="rounded=1;whiteSpace=wrap;html=1;" parent="z2PNZBZcIhWz65c71THJ-167" vertex="1">
          <mxGeometry x="388" y="33" width="120" height="60" as="geometry" />
        </mxCell>
        <mxCell id="z2PNZBZcIhWz65c71THJ-170" value="Calculo de descuentos" style="rounded=1;whiteSpace=wrap;html=1;" parent="z2PNZBZcIhWz65c71THJ-167" vertex="1">
          <mxGeometry x="516" y="33" width="120" height="60" as="geometry" />
        </mxCell>
        <mxCell id="z2PNZBZcIhWz65c71THJ-171" value="Creación de cuentas bancarias de empleados" style="rounded=1;whiteSpace=wrap;html=1;" parent="z2PNZBZcIhWz65c71THJ-167" vertex="1">
          <mxGeometry x="10" y="33" width="120" height="60" as="geometry" />
        </mxCell>
        <mxCell id="z2PNZBZcIhWz65c71THJ-172" value="Pago de anticipos" style="rounded=1;whiteSpace=wrap;html=1;" parent="z2PNZBZcIhWz65c71THJ-167" vertex="1">
          <mxGeometry x="136" y="33" width="120" height="60" as="geometry" />
        </mxCell>
        <mxCell id="z2PNZBZcIhWz65c71THJ-173" value="Aprobación y registro de suspensiones de IGSS" style="rounded=1;whiteSpace=wrap;html=1;" parent="z2PNZBZcIhWz65c71THJ-167" vertex="1">
          <mxGeometry x="262" y="33" width="120" height="60" as="geometry" />
        </mxCell>
        <mxCell id="z2PNZBZcIhWz65c71THJ-174" value="Soporte-11. Tecnología e Innovación" style="swimlane;fillColor=#FFC000;" parent="z2PNZBZcIhWz65c71THJ-142" vertex="1">
          <mxGeometry x="687" y="235" width="292" height="100" as="geometry">
            <mxRectangle x="30" y="230" width="230" height="30" as="alternateBounds" />
          </mxGeometry>
        </mxCell>
        <mxCell id="z2PNZBZcIhWz65c71THJ-175" value="Gestión de equipo de cómputo" style="rounded=1;whiteSpace=wrap;html=1;" parent="z2PNZBZcIhWz65c71THJ-174" vertex="1">
          <mxGeometry x="17" y="33" width="120" height="60" as="geometry" />
        </mxCell>
        <mxCell id="z2PNZBZcIhWz65c71THJ-176" value="Gestión de Telecomunicaciones" style="rounded=1;whiteSpace=wrap;html=1;" parent="z2PNZBZcIhWz65c71THJ-174" vertex="1">
          <mxGeometry x="157" y="33" width="120" height="60" as="geometry" />
        </mxCell>
        <mxCell id="z2PNZBZcIhWz65c71THJ-177" value="Soporte-12. Compras y Suministros" style="swimlane;fillColor=#FFC000;" parent="z2PNZBZcIhWz65c71THJ-142" vertex="1">
          <mxGeometry x="432" y="40" width="638" height="170" as="geometry">
            <mxRectangle x="35" y="180" width="230" height="30" as="alternateBounds" />
          </mxGeometry>
        </mxCell>
        <mxCell id="z2PNZBZcIhWz65c71THJ-178" value="Cotización de repuestos" style="rounded=1;whiteSpace=wrap;html=1;" parent="z2PNZBZcIhWz65c71THJ-177" vertex="1">
          <mxGeometry x="10" y="102" width="120" height="60" as="geometry" />
        </mxCell>
        <mxCell id="z2PNZBZcIhWz65c71THJ-179" value="Abastecimiento e ingresos de bodega" style="rounded=1;whiteSpace=wrap;html=1;" parent="z2PNZBZcIhWz65c71THJ-177" vertex="1">
          <mxGeometry x="175" y="35" width="120" height="60" as="geometry" />
        </mxCell>
        <mxCell id="z2PNZBZcIhWz65c71THJ-180" value="Abastecimiento e ingresos de sub-bodega" style="rounded=1;whiteSpace=wrap;html=1;" parent="z2PNZBZcIhWz65c71THJ-177" vertex="1">
          <mxGeometry x="340" y="35" width="120" height="60" as="geometry" />
        </mxCell>
        <mxCell id="z2PNZBZcIhWz65c71THJ-181" value="Almacenamiento de insumos" style="rounded=1;whiteSpace=wrap;html=1;" parent="z2PNZBZcIhWz65c71THJ-177" vertex="1">
          <mxGeometry x="505" y="35" width="120" height="60" as="geometry" />
        </mxCell>
        <mxCell id="z2PNZBZcIhWz65c71THJ-182" value="Almacenamiento de insumos en sub-bodega" style="rounded=1;whiteSpace=wrap;html=1;" parent="z2PNZBZcIhWz65c71THJ-177" vertex="1">
          <mxGeometry x="10" y="35" width="120" height="60" as="geometry" />
        </mxCell>
        <mxCell id="z2PNZBZcIhWz65c71THJ-183" value="Control de bodega" style="rounded=1;whiteSpace=wrap;html=1;" parent="z2PNZBZcIhWz65c71THJ-177" vertex="1">
          <mxGeometry x="134" y="102" width="120" height="60" as="geometry" />
        </mxCell>
        <mxCell id="z2PNZBZcIhWz65c71THJ-184" value="Control de sub-bodega" style="rounded=1;whiteSpace=wrap;html=1;" parent="z2PNZBZcIhWz65c71THJ-177" vertex="1">
          <mxGeometry x="258" y="102" width="120" height="60" as="geometry" />
        </mxCell>
        <mxCell id="z2PNZBZcIhWz65c71THJ-185" value="Solicitudes y Entregas de insumos de bodega" style="rounded=1;whiteSpace=wrap;html=1;" parent="z2PNZBZcIhWz65c71THJ-177" vertex="1">
          <mxGeometry x="381" y="102" width="120" height="60" as="geometry" />
        </mxCell>
        <mxCell id="z2PNZBZcIhWz65c71THJ-186" value="Solicitudes y Entregas de insumos de sub-bodega" style="rounded=1;whiteSpace=wrap;html=1;" parent="z2PNZBZcIhWz65c71THJ-177" vertex="1">
          <mxGeometry x="505" y="102" width="120" height="60" as="geometry" />
        </mxCell>
        <mxCell id="ePB9ZdjZE_6muiWXgS1r-1" value="" style="group" vertex="1" parent="1">
          <mxGeometry x="540" y="20" width="600" height="80" as="geometry" />
        </mxCell>
        <mxCell id="ePB9ZdjZE_6muiWXgS1r-2" value="Mapa de Procesos" style="text;align=center;verticalAlign=middle;whiteSpace=wrap;rounded=0;fillColor=#002060;fontSize=18;fontColor=#FFC000;fontStyle=1;" vertex="1" parent="ePB9ZdjZE_6muiWXgS1r-1">
          <mxGeometry width="600" height="30" as="geometry" />
        </mxCell>
        <mxCell id="ePB9ZdjZE_6muiWXgS1r-3" value="" style="group" vertex="1" parent="ePB9ZdjZE_6muiWXgS1r-1">
          <mxGeometry y="30" width="600" height="50" as="geometry" />
        </mxCell>
        <mxCell id="ePB9ZdjZE_6muiWXgS1r-4" value="Empresa: Finca San Juan Bosco" style="text;align=left;whiteSpace=wrap;fillColor=#ffffff;fontSize=12;fontColor=#000000;" vertex="1" parent="ePB9ZdjZE_6muiWXgS1r-3">
          <mxGeometry width="290" height="20" as="geometry" />
        </mxCell>
        <mxCell id="ePB9ZdjZE_6muiWXgS1r-5" value="Departamento: Dirección General" style="text;align=left;whiteSpace=wrap;fillColor=#ffffff;fontSize=12;fontColor=#000000;" vertex="1" parent="ePB9ZdjZE_6muiWXgS1r-3">
          <mxGeometry x="300" width="290" height="20" as="geometry" />
        </mxCell>
        <mxCell id="ePB9ZdjZE_6muiWXgS1r-6" value="Proceso: Mapa de procesos (Inventario)" style="text;align=left;whiteSpace=wrap;fillColor=#ffffff;fontSize=12;fontColor=#000000;" vertex="1" parent="ePB9ZdjZE_6muiWXgS1r-3">
          <mxGeometry y="20" width="290" height="20" as="geometry" />
        </mxCell>
        <mxCell id="ePB9ZdjZE_6muiWXgS1r-7" value="Fecha: 24/09/2004" style="text;align=left;whiteSpace=wrap;fillColor=#ffffff;fontSize=12;fontColor=#000000;" vertex="1" parent="ePB9ZdjZE_6muiWXgS1r-3">
          <mxGeometry x="300" y="20" width="290" height="20" as="geometry" />
        </mxCell>
        <mxCell id="ePB9ZdjZE_6muiWXgS1r-8" value="Versión: 1.0" style="text;align=left;whiteSpace=wrap;fillColor=#ffffff;fontSize=12;fontColor=#000000;" vertex="1" parent="ePB9ZdjZE_6muiWXgS1r-3">
          <mxGeometry y="40" width="290" height="20" as="geometry" />
        </mxCell>
        <mxCell id="ePB9ZdjZE_6muiWXgS1r-9" value="Responsable: emejia" style="text;align=left;whiteSpace=wrap;fillColor=#ffffff;fontSize=12;fontColor=#000000;" vertex="1" parent="ePB9ZdjZE_6muiWXgS1r-3">
          <mxGeometry x="300" y="40" width="290" height="20" as="geometry" />
        </mxCell>
      </root>
    </mxGraphModel>
  </diagram>
  <diagram id="vCKBNtWpebCHhtuO02zb" name="Diagrama General">
    <mxGraphModel dx="1434" dy="1920" grid="1" gridSize="10" guides="1" tooltips="1" connect="1" arrows="1" fold="1" page="1" pageScale="1" pageWidth="850" pageHeight="1100" math="0" shadow="0">
      <root>
        <mxCell id="0" />
        <mxCell id="1" parent="0" />
        <mxCell id="IaFn9HRnt56dZxtYnOid-1" value="" style="swimlane;startSize=0;" vertex="1" parent="1">
          <mxGeometry x="23" y="-170" width="800" height="140" as="geometry" />
        </mxCell>
        <mxCell id="IaFn9HRnt56dZxtYnOid-2" value="13. Legal y Cumplimiento &lt;b&gt;&lt;font style=&quot;font-size: 14px;&quot;&gt;(1)&lt;/font&gt;&lt;/b&gt;" style="ellipse;whiteSpace=wrap;html=1;fillColor=#e1d5e7;strokeColor=#000000;" vertex="1" parent="IaFn9HRnt56dZxtYnOid-1">
          <mxGeometry x="60" y="50" width="120" height="80" as="geometry" />
        </mxCell>
        <mxCell id="IaFn9HRnt56dZxtYnOid-3" value="07. Finanzas y Contabilidad &lt;b&gt;&lt;font style=&quot;font-size: 14px;&quot;&gt;(2)&lt;/font&gt;&lt;/b&gt;" style="ellipse;whiteSpace=wrap;html=1;fillColor=#e1d5e7;strokeColor=#000000;" vertex="1" parent="IaFn9HRnt56dZxtYnOid-1">
          <mxGeometry x="240" y="50" width="120" height="80" as="geometry" />
        </mxCell>
        <mxCell id="IaFn9HRnt56dZxtYnOid-4" value="04. Operaciones y Logística &lt;b&gt;&lt;font style=&quot;font-size: 14px;&quot;&gt;(4)&lt;/font&gt;&lt;/b&gt;" style="ellipse;whiteSpace=wrap;html=1;fillColor=#e1d5e7;strokeColor=#000000;" vertex="1" parent="IaFn9HRnt56dZxtYnOid-1">
          <mxGeometry x="420" y="50" width="120" height="80" as="geometry" />
        </mxCell>
        <mxCell id="IaFn9HRnt56dZxtYnOid-5" value="02. Producción Ganadera &lt;b&gt;&lt;font style=&quot;font-size: 14px;&quot;&gt;(1)&lt;/font&gt;&lt;/b&gt;" style="ellipse;whiteSpace=wrap;html=1;fillColor=#e1d5e7;strokeColor=#000000;" vertex="1" parent="IaFn9HRnt56dZxtYnOid-1">
          <mxGeometry x="610" y="50" width="120" height="80" as="geometry" />
        </mxCell>
        <mxCell id="IaFn9HRnt56dZxtYnOid-6" value="Control&amp;nbsp;&lt;b&gt;&lt;font style=&quot;font-size: 14px;&quot;&gt;(8)&lt;/font&gt;&lt;/b&gt;" style="rounded=0;whiteSpace=wrap;html=1;fillColor=#e1d5e7;strokeColor=#000000;" vertex="1" parent="IaFn9HRnt56dZxtYnOid-1">
          <mxGeometry x="720" width="80" height="30" as="geometry" />
        </mxCell>
        <mxCell id="IaFn9HRnt56dZxtYnOid-7" value="" style="shape=doubleArrow;direction=south;whiteSpace=wrap;html=1;" vertex="1" parent="IaFn9HRnt56dZxtYnOid-1">
          <mxGeometry x="205" y="10" width="20" height="30" as="geometry" />
        </mxCell>
        <mxCell id="IaFn9HRnt56dZxtYnOid-8" value="" style="shape=doubleArrow;direction=south;whiteSpace=wrap;html=1;" vertex="1" parent="IaFn9HRnt56dZxtYnOid-1">
          <mxGeometry x="375" y="10" width="20" height="30" as="geometry" />
        </mxCell>
        <mxCell id="IaFn9HRnt56dZxtYnOid-9" value="" style="shape=doubleArrow;direction=south;whiteSpace=wrap;html=1;" vertex="1" parent="IaFn9HRnt56dZxtYnOid-1">
          <mxGeometry x="570" y="10" width="20" height="30" as="geometry" />
        </mxCell>
        <mxCell id="IaFn9HRnt56dZxtYnOid-10" value="" style="swimlane;startSize=0;" vertex="1" parent="1">
          <mxGeometry x="103" y="-370" width="660" height="200" as="geometry" />
        </mxCell>
        <mxCell id="IaFn9HRnt56dZxtYnOid-11" value="04. Operaciones y Logística &lt;b&gt;&lt;font style=&quot;font-size: 14px;&quot;&gt;(5)&lt;/font&gt;&lt;/b&gt;" style="ellipse;whiteSpace=wrap;html=1;fillColor=#fff2cc;strokeColor=#000000;" vertex="1" parent="IaFn9HRnt56dZxtYnOid-10">
          <mxGeometry x="340" y="110" width="120" height="80" as="geometry" />
        </mxCell>
        <mxCell id="IaFn9HRnt56dZxtYnOid-12" value="08. Recursos Humanos &lt;b&gt;&lt;font style=&quot;font-size: 14px;&quot;&gt;(6)&lt;/font&gt;&lt;/b&gt;" style="ellipse;whiteSpace=wrap;html=1;fillColor=#fff2cc;strokeColor=#000000;" vertex="1" parent="IaFn9HRnt56dZxtYnOid-10">
          <mxGeometry x="440" y="30" width="120" height="80" as="geometry" />
        </mxCell>
        <mxCell id="IaFn9HRnt56dZxtYnOid-13" value="03. Producción Forestal y Maderera &lt;b&gt;&lt;font style=&quot;font-size: 14px;&quot;&gt;(1)&lt;/font&gt;&lt;/b&gt;" style="ellipse;whiteSpace=wrap;html=1;fillColor=#fff2cc;strokeColor=#000000;" vertex="1" parent="IaFn9HRnt56dZxtYnOid-10">
          <mxGeometry x="270" y="30" width="120" height="80" as="geometry" />
        </mxCell>
        <mxCell id="IaFn9HRnt56dZxtYnOid-14" value="06. Ventas y Marketing &lt;b&gt;&lt;font style=&quot;font-size: 14px;&quot;&gt;(1)&lt;/font&gt;&lt;/b&gt;" style="ellipse;whiteSpace=wrap;html=1;fillColor=#fff2cc;strokeColor=#000000;" vertex="1" parent="IaFn9HRnt56dZxtYnOid-10">
          <mxGeometry x="100" y="30" width="120" height="80" as="geometry" />
        </mxCell>
        <mxCell id="IaFn9HRnt56dZxtYnOid-15" value="07. Finanzas y Contabilidad &lt;b&gt;&lt;font style=&quot;font-size: 14px;&quot;&gt;(13)&lt;/font&gt;&lt;/b&gt;" style="ellipse;whiteSpace=wrap;html=1;fillColor=#fff2cc;strokeColor=#000000;" vertex="1" parent="IaFn9HRnt56dZxtYnOid-10">
          <mxGeometry x="190" y="110" width="120" height="80" as="geometry" />
        </mxCell>
        <mxCell id="IaFn9HRnt56dZxtYnOid-16" value="11. Tecnología e Innovación &lt;b&gt;&lt;font style=&quot;font-size: 14px;&quot;&gt;(2)&lt;/font&gt;&lt;/b&gt;" style="ellipse;whiteSpace=wrap;html=1;fillColor=#fff2cc;strokeColor=#000000;" vertex="1" parent="IaFn9HRnt56dZxtYnOid-10">
          <mxGeometry x="530" y="110" width="120" height="80" as="geometry" />
        </mxCell>
        <mxCell id="IaFn9HRnt56dZxtYnOid-17" value="12. Compras y Suministros &lt;b&gt;&lt;font style=&quot;font-size: 14px;&quot;&gt;(9)&lt;/font&gt;&lt;/b&gt;" style="ellipse;whiteSpace=wrap;html=1;fillColor=#fff2cc;strokeColor=#000000;" vertex="1" parent="IaFn9HRnt56dZxtYnOid-10">
          <mxGeometry x="30" y="110" width="120" height="80" as="geometry" />
        </mxCell>
        <mxCell id="IaFn9HRnt56dZxtYnOid-18" value="Soporte&amp;nbsp;&lt;b&gt;&lt;font style=&quot;font-size: 14px;&quot;&gt;(37)&lt;/font&gt;&lt;/b&gt;" style="rounded=0;whiteSpace=wrap;html=1;fillColor=#fff2cc;strokeColor=#000000;" vertex="1" parent="IaFn9HRnt56dZxtYnOid-10">
          <mxGeometry x="570" width="90" height="30" as="geometry" />
        </mxCell>
        <mxCell id="IaFn9HRnt56dZxtYnOid-19" value="" style="shape=doubleArrow;direction=south;whiteSpace=wrap;html=1;" vertex="1" parent="IaFn9HRnt56dZxtYnOid-10">
          <mxGeometry x="240" y="10" width="20" height="30" as="geometry" />
        </mxCell>
        <mxCell id="IaFn9HRnt56dZxtYnOid-20" value="" style="shape=doubleArrow;direction=south;whiteSpace=wrap;html=1;" vertex="1" parent="IaFn9HRnt56dZxtYnOid-10">
          <mxGeometry x="410" y="10" width="20" height="30" as="geometry" />
        </mxCell>
        <mxCell id="IaFn9HRnt56dZxtYnOid-21" value="" style="swimlane;startSize=0;" vertex="1" parent="1">
          <mxGeometry x="103" y="-690" width="660" height="320" as="geometry" />
        </mxCell>
        <mxCell id="IaFn9HRnt56dZxtYnOid-22" value="15. Gestión de Riesgos &lt;b&gt;&lt;font style=&quot;font-size: 14px;&quot;&gt;(1)&lt;/font&gt;&lt;/b&gt;" style="ellipse;whiteSpace=wrap;html=1;fillColor=#d5e8d4;strokeColor=#000000;" vertex="1" parent="IaFn9HRnt56dZxtYnOid-21">
          <mxGeometry x="540" y="230" width="120" height="80" as="geometry" />
        </mxCell>
        <mxCell id="IaFn9HRnt56dZxtYnOid-23" value="Operativo&amp;nbsp;&lt;b&gt;&lt;font style=&quot;font-size: 14px;&quot;&gt;(59)&lt;/font&gt;&lt;/b&gt;" style="rounded=0;whiteSpace=wrap;html=1;fillColor=#d5e8d4;strokeColor=#000000;" vertex="1" parent="IaFn9HRnt56dZxtYnOid-21">
          <mxGeometry x="560" width="100" height="30" as="geometry" />
        </mxCell>
        <mxCell id="IaFn9HRnt56dZxtYnOid-24" value="03. Producción Forestal y Maderera &lt;b&gt;&lt;font style=&quot;font-size: 14px;&quot;&gt;(13)&lt;/font&gt;&lt;/b&gt;" style="ellipse;whiteSpace=wrap;html=1;fillColor=#d5e8d4;strokeColor=#000000;" vertex="1" parent="IaFn9HRnt56dZxtYnOid-21">
          <mxGeometry x="340" y="110" width="120" height="80" as="geometry" />
        </mxCell>
        <mxCell id="IaFn9HRnt56dZxtYnOid-25" value="04. Operaciones y Logística &lt;b&gt;&lt;font style=&quot;font-size: 14px;&quot;&gt;(16)&lt;/font&gt;&lt;/b&gt;" style="ellipse;whiteSpace=wrap;html=1;fillColor=#d5e8d4;strokeColor=#000000;" vertex="1" parent="IaFn9HRnt56dZxtYnOid-21">
          <mxGeometry x="410" y="230" width="120" height="80" as="geometry" />
        </mxCell>
        <mxCell id="IaFn9HRnt56dZxtYnOid-26" value="08. Recursos Humanos &lt;b&gt;&lt;font style=&quot;font-size: 14px;&quot;&gt;(1)&lt;/font&gt;&lt;/b&gt;" style="ellipse;whiteSpace=wrap;html=1;fillColor=#d5e8d4;strokeColor=#000000;" vertex="1" parent="IaFn9HRnt56dZxtYnOid-21">
          <mxGeometry x="20" y="230" width="120" height="80" as="geometry" />
        </mxCell>
        <mxCell id="IaFn9HRnt56dZxtYnOid-27" value="07. Finanzas y Contabilidad &lt;b&gt;&lt;font style=&quot;font-size: 14px;&quot;&gt;(1)&lt;/font&gt;&lt;/b&gt;" style="ellipse;whiteSpace=wrap;html=1;fillColor=#d5e8d4;strokeColor=#000000;" vertex="1" parent="IaFn9HRnt56dZxtYnOid-21">
          <mxGeometry x="150" y="230" width="120" height="80" as="geometry" />
        </mxCell>
        <mxCell id="IaFn9HRnt56dZxtYnOid-28" value="02. Producción Ganadera &lt;b&gt;&lt;font style=&quot;font-size: 14px;&quot;&gt;(10)&lt;/font&gt;&lt;/b&gt;" style="ellipse;whiteSpace=wrap;html=1;fillColor=#d5e8d4;strokeColor=#000000;" vertex="1" parent="IaFn9HRnt56dZxtYnOid-21">
          <mxGeometry x="203.5" y="110" width="120" height="80" as="geometry" />
        </mxCell>
        <mxCell id="IaFn9HRnt56dZxtYnOid-29" value="13. Legal y Cumplimiento &lt;b&gt;&lt;font style=&quot;font-size: 14px;&quot;&gt;(8)&lt;/font&gt;&lt;/b&gt;" style="ellipse;whiteSpace=wrap;html=1;fillColor=#d5e8d4;strokeColor=#000000;" vertex="1" parent="IaFn9HRnt56dZxtYnOid-21">
          <mxGeometry x="20" y="110" width="120" height="80" as="geometry" />
        </mxCell>
        <mxCell id="IaFn9HRnt56dZxtYnOid-30" value="10. Gestión Ambiental y Sostenibilidad &lt;b&gt;&lt;font style=&quot;font-size: 14px;&quot;&gt;(1)&lt;/font&gt;&lt;/b&gt;" style="ellipse;whiteSpace=wrap;html=1;fillColor=#d5e8d4;strokeColor=#000000;" vertex="1" parent="IaFn9HRnt56dZxtYnOid-21">
          <mxGeometry x="520" y="110" width="120" height="80" as="geometry" />
        </mxCell>
        <mxCell id="IaFn9HRnt56dZxtYnOid-31" value="05. Control de Calidad &lt;b&gt;&lt;font style=&quot;font-size: 14px;&quot;&gt;(3)&lt;/font&gt;&lt;/b&gt;" style="ellipse;whiteSpace=wrap;html=1;fillColor=#d5e8d4;strokeColor=#000000;" vertex="1" parent="IaFn9HRnt56dZxtYnOid-21">
          <mxGeometry x="280" y="230" width="120" height="80" as="geometry" />
        </mxCell>
        <mxCell id="IaFn9HRnt56dZxtYnOid-32" value="06. Ventas y Marketing &lt;b&gt;&lt;font style=&quot;font-size: 14px;&quot;&gt;(5)&lt;/font&gt;&lt;/b&gt;" style="ellipse;whiteSpace=wrap;html=1;fillColor=#d5e8d4;strokeColor=#000000;" vertex="1" parent="IaFn9HRnt56dZxtYnOid-21">
          <mxGeometry x="270" y="10" width="120" height="80" as="geometry" />
        </mxCell>
        <mxCell id="IaFn9HRnt56dZxtYnOid-33" value="" style="html=1;shadow=0;dashed=0;align=center;verticalAlign=middle;shape=mxgraph.arrows2.arrow;dy=0.67;dx=14;notch=0;" vertex="1" parent="IaFn9HRnt56dZxtYnOid-21">
          <mxGeometry x="150" y="135" width="40" height="30" as="geometry" />
        </mxCell>
        <mxCell id="IaFn9HRnt56dZxtYnOid-34" value="" style="html=1;shadow=0;dashed=0;align=center;verticalAlign=middle;shape=mxgraph.arrows2.arrow;dy=0.69;dx=14;flipH=1;notch=0;" vertex="1" parent="IaFn9HRnt56dZxtYnOid-21">
          <mxGeometry x="470" y="135" width="40" height="30" as="geometry" />
        </mxCell>
        <mxCell id="IaFn9HRnt56dZxtYnOid-35" value="" style="html=1;shadow=0;dashed=0;align=center;verticalAlign=middle;shape=mxgraph.arrows2.arrow;dy=0.56;dx=19;direction=south;notch=0;" vertex="1" parent="IaFn9HRnt56dZxtYnOid-21">
          <mxGeometry x="324" y="95" width="20" height="40" as="geometry" />
        </mxCell>
        <mxCell id="IaFn9HRnt56dZxtYnOid-36" value="" style="html=1;shadow=0;dashed=0;align=center;verticalAlign=middle;shape=mxgraph.arrows2.arrow;dy=0.56;dx=19;direction=south;notch=0;" vertex="1" parent="IaFn9HRnt56dZxtYnOid-21">
          <mxGeometry x="160.5" y="176" width="20" height="40" as="geometry" />
        </mxCell>
        <mxCell id="IaFn9HRnt56dZxtYnOid-37" value="" style="html=1;shadow=0;dashed=0;align=center;verticalAlign=middle;shape=mxgraph.arrows2.arrow;dy=0.56;dx=19;direction=south;notch=0;" vertex="1" parent="IaFn9HRnt56dZxtYnOid-21">
          <mxGeometry x="479.5" y="176" width="20" height="40" as="geometry" />
        </mxCell>
        <mxCell id="IaFn9HRnt56dZxtYnOid-38" value="" style="html=1;shadow=0;dashed=0;align=center;verticalAlign=middle;shape=mxgraph.arrows2.arrow;dy=0.56;dx=19;direction=south;notch=0;" vertex="1" parent="IaFn9HRnt56dZxtYnOid-21">
          <mxGeometry x="319.5" y="176" width="20" height="40" as="geometry" />
        </mxCell>
        <mxCell id="IaFn9HRnt56dZxtYnOid-39" value="" style="swimlane;startSize=0;" vertex="1" parent="1">
          <mxGeometry x="103" y="-950" width="660" height="260" as="geometry">
            <mxRectangle x="120" y="-1010" width="50" height="40" as="alternateBounds" />
          </mxGeometry>
        </mxCell>
        <mxCell id="IaFn9HRnt56dZxtYnOid-40" value="Estratégico &lt;b&gt;&lt;font style=&quot;font-size: 14px;&quot;&gt;(20)&lt;/font&gt;&lt;/b&gt;" style="rounded=0;whiteSpace=wrap;html=1;fillColor=#dae8fc;strokeColor=#000000;" vertex="1" parent="IaFn9HRnt56dZxtYnOid-39">
          <mxGeometry x="550" width="110" height="30" as="geometry" />
        </mxCell>
        <mxCell id="IaFn9HRnt56dZxtYnOid-41" value="05. Control de Calidad &lt;b&gt;&lt;font style=&quot;font-size: 14px;&quot;&gt;(1)&lt;/font&gt;&lt;/b&gt;" style="ellipse;whiteSpace=wrap;html=1;fillColor=#dae8fc;strokeColor=#000000;" vertex="1" parent="IaFn9HRnt56dZxtYnOid-39">
          <mxGeometry x="41" y="167" width="120" height="80" as="geometry" />
        </mxCell>
        <mxCell id="IaFn9HRnt56dZxtYnOid-42" value="06. Ventas y Marketing &lt;b&gt;&lt;font style=&quot;font-size: 14px;&quot;&gt;(7)&lt;/font&gt;&lt;/b&gt;" style="ellipse;whiteSpace=wrap;html=1;fillColor=#dae8fc;strokeColor=#000000;" vertex="1" parent="IaFn9HRnt56dZxtYnOid-39">
          <mxGeometry x="181" y="167" width="120" height="80" as="geometry" />
        </mxCell>
        <mxCell id="IaFn9HRnt56dZxtYnOid-43" value="01. Dirección General &lt;b&gt;&lt;font style=&quot;font-size: 14px;&quot;&gt;(2)&lt;/font&gt;&lt;/b&gt;" style="ellipse;whiteSpace=wrap;html=1;fillColor=#dae8fc;strokeColor=#000000;" vertex="1" parent="IaFn9HRnt56dZxtYnOid-39">
          <mxGeometry x="10" y="42" width="120" height="80" as="geometry" />
        </mxCell>
        <mxCell id="IaFn9HRnt56dZxtYnOid-44" value="09. Investigación y Desarrollo &lt;b&gt;&lt;font style=&quot;font-size: 14px;&quot;&gt;(1)&lt;/font&gt;&lt;/b&gt;" style="ellipse;whiteSpace=wrap;html=1;fillColor=#dae8fc;strokeColor=#000000;" vertex="1" parent="IaFn9HRnt56dZxtYnOid-39">
          <mxGeometry x="530" y="42" width="120" height="80" as="geometry" />
        </mxCell>
        <mxCell id="IaFn9HRnt56dZxtYnOid-45" value="12. Compras y Suministros &lt;b&gt;&lt;font style=&quot;font-size: 14px;&quot;&gt;(1)&lt;/font&gt;&lt;/b&gt;" style="ellipse;whiteSpace=wrap;html=1;fillColor=#dae8fc;strokeColor=#000000;" vertex="1" parent="IaFn9HRnt56dZxtYnOid-39">
          <mxGeometry x="461" y="167" width="120" height="80" as="geometry" />
        </mxCell>
        <mxCell id="IaFn9HRnt56dZxtYnOid-46" value="13. Legal y Cumplimiento &lt;b&gt;&lt;font style=&quot;font-size: 14px;&quot;&gt;(1)&lt;/font&gt;&lt;/b&gt;" style="ellipse;whiteSpace=wrap;html=1;fillColor=#dae8fc;strokeColor=#000000;" vertex="1" parent="IaFn9HRnt56dZxtYnOid-39">
          <mxGeometry x="321" y="167" width="120" height="80" as="geometry" />
        </mxCell>
        <mxCell id="IaFn9HRnt56dZxtYnOid-47" value="02. Producción Ganadera &lt;b&gt;&lt;font style=&quot;font-size: 14px;&quot;&gt;(2)&lt;/font&gt;&lt;/b&gt;" style="ellipse;whiteSpace=wrap;html=1;fillColor=#dae8fc;strokeColor=#000000;" vertex="1" parent="IaFn9HRnt56dZxtYnOid-39">
          <mxGeometry x="211" y="42" width="120" height="80" as="geometry" />
        </mxCell>
        <mxCell id="IaFn9HRnt56dZxtYnOid-48" value="03. Producción Forestal y Maderera &lt;b&gt;&lt;font style=&quot;font-size: 14px;&quot;&gt;(5)&lt;/font&gt;&lt;/b&gt;" style="ellipse;whiteSpace=wrap;html=1;fillColor=#dae8fc;strokeColor=#000000;" vertex="1" parent="IaFn9HRnt56dZxtYnOid-39">
          <mxGeometry x="341" y="42" width="120" height="80" as="geometry" />
        </mxCell>
        <mxCell id="IaFn9HRnt56dZxtYnOid-49" value="" style="html=1;shadow=0;dashed=0;align=center;verticalAlign=middle;shape=mxgraph.arrows2.arrow;dy=0.56;dx=19;direction=south;notch=0;" vertex="1" parent="IaFn9HRnt56dZxtYnOid-39">
          <mxGeometry x="161" y="118" width="20" height="40" as="geometry" />
        </mxCell>
        <mxCell id="IaFn9HRnt56dZxtYnOid-50" value="" style="html=1;shadow=0;dashed=0;align=center;verticalAlign=middle;shape=mxgraph.arrows2.arrow;dy=0.56;dx=19;direction=south;notch=0;" vertex="1" parent="IaFn9HRnt56dZxtYnOid-39">
          <mxGeometry x="480" y="118" width="20" height="40" as="geometry" />
        </mxCell>
        <mxCell id="IaFn9HRnt56dZxtYnOid-51" value="" style="shape=doubleArrow;whiteSpace=wrap;html=1;arrowWidth=0.4;arrowSize=0.3;" vertex="1" parent="IaFn9HRnt56dZxtYnOid-39">
          <mxGeometry x="151" y="72" width="40" height="20" as="geometry" />
        </mxCell>
        <mxCell id="IaFn9HRnt56dZxtYnOid-52" value="" style="shape=doubleArrow;whiteSpace=wrap;html=1;arrowWidth=0.4;arrowSize=0.3;" vertex="1" parent="IaFn9HRnt56dZxtYnOid-39">
          <mxGeometry x="480" y="72" width="40" height="20" as="geometry" />
        </mxCell>
        <mxCell id="IaFn9HRnt56dZxtYnOid-53" value="" style="html=1;shadow=0;dashed=0;align=center;verticalAlign=middle;shape=mxgraph.arrows2.arrow;dy=0.56;dx=19;direction=south;notch=0;" vertex="1" parent="IaFn9HRnt56dZxtYnOid-39">
          <mxGeometry x="320" y="118" width="20" height="40" as="geometry" />
        </mxCell>
        <mxCell id="H3t087-sauGSh_yQ8KFh-9" value="" style="group" vertex="1" parent="1">
          <mxGeometry x="125" y="-1080" width="600" height="80" as="geometry" />
        </mxCell>
        <mxCell id="H3t087-sauGSh_yQ8KFh-10" value="Diagrama de General de Procesos" style="text;align=center;verticalAlign=middle;whiteSpace=wrap;rounded=0;fillColor=#002060;fontSize=18;fontColor=#FFC000;fontStyle=1;" vertex="1" parent="H3t087-sauGSh_yQ8KFh-9">
          <mxGeometry width="600" height="30" as="geometry" />
        </mxCell>
        <mxCell id="H3t087-sauGSh_yQ8KFh-11" value="" style="group" vertex="1" parent="H3t087-sauGSh_yQ8KFh-9">
          <mxGeometry y="30" width="600" height="50" as="geometry" />
        </mxCell>
        <mxCell id="H3t087-sauGSh_yQ8KFh-12" value="Empresa: Finca San Juan Bosco" style="text;align=left;whiteSpace=wrap;fillColor=#ffffff;fontSize=12;fontColor=#000000;" vertex="1" parent="H3t087-sauGSh_yQ8KFh-11">
          <mxGeometry width="290" height="20" as="geometry" />
        </mxCell>
        <mxCell id="H3t087-sauGSh_yQ8KFh-13" value="Departamento: Dirección General" style="text;align=left;whiteSpace=wrap;fillColor=#ffffff;fontSize=12;fontColor=#000000;" vertex="1" parent="H3t087-sauGSh_yQ8KFh-11">
          <mxGeometry x="300" width="290" height="20" as="geometry" />
        </mxCell>
        <mxCell id="H3t087-sauGSh_yQ8KFh-14" value="Proceso: Diegrama General" style="text;align=left;whiteSpace=wrap;fillColor=#ffffff;fontSize=12;fontColor=#000000;" vertex="1" parent="H3t087-sauGSh_yQ8KFh-11">
          <mxGeometry y="20" width="290" height="20" as="geometry" />
        </mxCell>
        <mxCell id="H3t087-sauGSh_yQ8KFh-15" value="Fecha: 24/09/2004" style="text;align=left;whiteSpace=wrap;fillColor=#ffffff;fontSize=12;fontColor=#000000;" vertex="1" parent="H3t087-sauGSh_yQ8KFh-11">
          <mxGeometry x="300" y="20" width="290" height="20" as="geometry" />
        </mxCell>
        <mxCell id="H3t087-sauGSh_yQ8KFh-16" value="Versión: 1.0" style="text;align=left;whiteSpace=wrap;fillColor=#ffffff;fontSize=12;fontColor=#000000;" vertex="1" parent="H3t087-sauGSh_yQ8KFh-11">
          <mxGeometry y="40" width="290" height="20" as="geometry" />
        </mxCell>
        <mxCell id="H3t087-sauGSh_yQ8KFh-17" value="Responsable: emejia" style="text;align=left;whiteSpace=wrap;fillColor=#ffffff;fontSize=12;fontColor=#000000;" vertex="1" parent="H3t087-sauGSh_yQ8KFh-11">
          <mxGeometry x="300" y="40" width="290" height="20" as="geometry" />
        </mxCell>
      </root>
    </mxGraphModel>
  </diagram>
  <diagram name="Diagrama base" id="gSk2enMj2ntKNKBjZ_e1">
    <mxGraphModel dx="1434" dy="806" grid="1" gridSize="10" guides="1" tooltips="1" connect="1" arrows="1" fold="1" page="1" pageScale="1" pageWidth="850" pageHeight="1100" math="0" shadow="0">
      <root>
        <mxCell id="8DI5RLa8rBgTrl0TAv30-0" />
        <mxCell id="8DI5RLa8rBgTrl0TAv30-1" parent="8DI5RLa8rBgTrl0TAv30-0" />
        <mxCell id="8DI5RLa8rBgTrl0TAv30-2" value="Gerente General - Ganado" style="swimlane;whiteSpace=wrap;html=1;" parent="8DI5RLa8rBgTrl0TAv30-1" vertex="1">
          <mxGeometry x="40" y="40" width="360" height="960" as="geometry" />
        </mxCell>
        <mxCell id="8DI5RLa8rBgTrl0TAv30-3" value="" style="edgeStyle=orthogonalEdgeStyle;rounded=0;orthogonalLoop=1;jettySize=auto;html=1;" parent="8DI5RLa8rBgTrl0TAv30-2" source="8DI5RLa8rBgTrl0TAv30-4" target="8DI5RLa8rBgTrl0TAv30-8" edge="1">
          <mxGeometry relative="1" as="geometry" />
        </mxCell>
        <mxCell id="8DI5RLa8rBgTrl0TAv30-4" value="INICIO" style="html=1;dashed=0;whiteSpace=wrap;shape=mxgraph.dfd.start" parent="8DI5RLa8rBgTrl0TAv30-2" vertex="1">
          <mxGeometry x="90" y="40" width="80" height="30" as="geometry" />
        </mxCell>
        <mxCell id="8DI5RLa8rBgTrl0TAv30-5" value="" style="edgeStyle=orthogonalEdgeStyle;rounded=0;orthogonalLoop=1;jettySize=auto;html=1;" parent="8DI5RLa8rBgTrl0TAv30-2" source="8DI5RLa8rBgTrl0TAv30-6" target="8DI5RLa8rBgTrl0TAv30-15" edge="1">
          <mxGeometry relative="1" as="geometry" />
        </mxCell>
        <mxCell id="8DI5RLa8rBgTrl0TAv30-6" value="5. Actualizar precios de venta por tipo de ganado." style="rounded=1;whiteSpace=wrap;html=1;" parent="8DI5RLa8rBgTrl0TAv30-2" vertex="1">
          <mxGeometry x="71" y="440" width="120" height="60" as="geometry" />
        </mxCell>
        <mxCell id="8DI5RLa8rBgTrl0TAv30-7" value="" style="edgeStyle=none;curved=1;rounded=0;orthogonalLoop=1;jettySize=auto;html=1;fontSize=12;startSize=8;endSize=8;" parent="8DI5RLa8rBgTrl0TAv30-2" source="8DI5RLa8rBgTrl0TAv30-8" target="8DI5RLa8rBgTrl0TAv30-11" edge="1">
          <mxGeometry relative="1" as="geometry" />
        </mxCell>
        <mxCell id="8DI5RLa8rBgTrl0TAv30-8" value="1. Revisar la información semanal de AGSOGUA" style="rounded=1;whiteSpace=wrap;html=1;" parent="8DI5RLa8rBgTrl0TAv30-2" vertex="1">
          <mxGeometry x="70" y="111" width="120" height="60" as="geometry" />
        </mxCell>
        <mxCell id="8DI5RLa8rBgTrl0TAv30-9" value="3. Requerir datos a contacto" style="rounded=1;whiteSpace=wrap;html=1;" parent="8DI5RLa8rBgTrl0TAv30-2" vertex="1">
          <mxGeometry x="70" y="338" width="120" height="60" as="geometry" />
        </mxCell>
        <mxCell id="8DI5RLa8rBgTrl0TAv30-10" value="NO" style="edgeStyle=none;curved=1;rounded=0;orthogonalLoop=1;jettySize=auto;html=1;fontSize=12;startSize=8;endSize=8;" parent="8DI5RLa8rBgTrl0TAv30-2" source="8DI5RLa8rBgTrl0TAv30-11" target="8DI5RLa8rBgTrl0TAv30-9" edge="1">
          <mxGeometry relative="1" as="geometry" />
        </mxCell>
        <mxCell id="8DI5RLa8rBgTrl0TAv30-11" value="¿Se cuenta con la información?" style="rhombus;whiteSpace=wrap;html=1;" parent="8DI5RLa8rBgTrl0TAv30-2" vertex="1">
          <mxGeometry x="90" y="213" width="80" height="80" as="geometry" />
        </mxCell>
        <mxCell id="8DI5RLa8rBgTrl0TAv30-12" value="" style="endArrow=classic;html=1;rounded=0;exitX=0;exitY=0.5;exitDx=0;exitDy=0;entryX=0;entryY=0.5;entryDx=0;entryDy=0;edgeStyle=orthogonalEdgeStyle;" parent="8DI5RLa8rBgTrl0TAv30-2" source="8DI5RLa8rBgTrl0TAv30-11" target="8DI5RLa8rBgTrl0TAv30-6" edge="1">
          <mxGeometry width="50" height="50" relative="1" as="geometry">
            <mxPoint x="120" y="590" as="sourcePoint" />
            <mxPoint x="170" y="540" as="targetPoint" />
            <Array as="points">
              <mxPoint x="30" y="255" />
              <mxPoint x="30" y="470" />
            </Array>
          </mxGeometry>
        </mxCell>
        <mxCell id="8DI5RLa8rBgTrl0TAv30-13" value="SI" style="edgeLabel;html=1;align=center;verticalAlign=middle;resizable=0;points=[];" parent="8DI5RLa8rBgTrl0TAv30-12" connectable="0" vertex="1">
          <mxGeometry x="0.2405" y="-1" relative="1" as="geometry">
            <mxPoint x="31" y="-136" as="offset" />
          </mxGeometry>
        </mxCell>
        <mxCell id="8DI5RLa8rBgTrl0TAv30-14" value="" style="edgeStyle=orthogonalEdgeStyle;rounded=0;orthogonalLoop=1;jettySize=auto;html=1;" parent="8DI5RLa8rBgTrl0TAv30-2" source="8DI5RLa8rBgTrl0TAv30-15" target="8DI5RLa8rBgTrl0TAv30-18" edge="1">
          <mxGeometry relative="1" as="geometry" />
        </mxCell>
        <mxCell id="8DI5RLa8rBgTrl0TAv30-15" value="6. Revisar pedidos con clientes recurrentes" style="rounded=1;whiteSpace=wrap;html=1;" parent="8DI5RLa8rBgTrl0TAv30-2" vertex="1">
          <mxGeometry x="71" y="538" width="120" height="60" as="geometry" />
        </mxCell>
        <mxCell id="8DI5RLa8rBgTrl0TAv30-16" value="Proceso de venta y entrega de ganado" style="shape=offPageConnector;whiteSpace=wrap;html=1;" parent="8DI5RLa8rBgTrl0TAv30-2" vertex="1">
          <mxGeometry x="91" y="851" width="80" height="80" as="geometry" />
        </mxCell>
        <mxCell id="8DI5RLa8rBgTrl0TAv30-17" value="" style="edgeStyle=orthogonalEdgeStyle;rounded=0;orthogonalLoop=1;jettySize=auto;html=1;" parent="8DI5RLa8rBgTrl0TAv30-2" source="8DI5RLa8rBgTrl0TAv30-18" target="8DI5RLa8rBgTrl0TAv30-21" edge="1">
          <mxGeometry relative="1" as="geometry" />
        </mxCell>
        <mxCell id="8DI5RLa8rBgTrl0TAv30-18" value="7. Comunicar precios de la semana" style="rounded=1;whiteSpace=wrap;html=1;" parent="8DI5RLa8rBgTrl0TAv30-2" vertex="1">
          <mxGeometry x="71" y="634" width="120" height="60" as="geometry" />
        </mxCell>
        <mxCell id="8DI5RLa8rBgTrl0TAv30-19" value="" style="edgeStyle=orthogonalEdgeStyle;rounded=0;orthogonalLoop=1;jettySize=auto;html=1;" parent="8DI5RLa8rBgTrl0TAv30-2" source="8DI5RLa8rBgTrl0TAv30-21" target="8DI5RLa8rBgTrl0TAv30-16" edge="1">
          <mxGeometry relative="1" as="geometry" />
        </mxCell>
        <mxCell id="8DI5RLa8rBgTrl0TAv30-20" value="SI" style="edgeLabel;html=1;align=center;verticalAlign=middle;resizable=0;points=[];" parent="8DI5RLa8rBgTrl0TAv30-19" connectable="0" vertex="1">
          <mxGeometry x="-0.1429" y="2" relative="1" as="geometry">
            <mxPoint as="offset" />
          </mxGeometry>
        </mxCell>
        <mxCell id="8DI5RLa8rBgTrl0TAv30-21" value="¿Clientes interesados?" style="rhombus;whiteSpace=wrap;html=1;" parent="8DI5RLa8rBgTrl0TAv30-2" vertex="1">
          <mxGeometry x="91" y="729" width="80" height="80" as="geometry" />
        </mxCell>
        <mxCell id="8DI5RLa8rBgTrl0TAv30-22" value="" style="endArrow=classic;html=1;rounded=0;exitX=1;exitY=0.5;exitDx=0;exitDy=0;entryX=1;entryY=0.5;entryDx=0;entryDy=0;edgeStyle=orthogonalEdgeStyle;" parent="8DI5RLa8rBgTrl0TAv30-2" source="8DI5RLa8rBgTrl0TAv30-21" target="8DI5RLa8rBgTrl0TAv30-15" edge="1">
          <mxGeometry width="50" height="50" relative="1" as="geometry">
            <mxPoint x="194" y="809" as="sourcePoint" />
            <mxPoint x="244" y="759" as="targetPoint" />
            <Array as="points">
              <mxPoint x="276" y="769" />
              <mxPoint x="276" y="568" />
            </Array>
          </mxGeometry>
        </mxCell>
        <mxCell id="8DI5RLa8rBgTrl0TAv30-23" value="NO" style="edgeLabel;html=1;align=center;verticalAlign=middle;resizable=0;points=[];" parent="8DI5RLa8rBgTrl0TAv30-22" connectable="0" vertex="1">
          <mxGeometry x="-0.7801" y="-2" relative="1" as="geometry">
            <mxPoint as="offset" />
          </mxGeometry>
        </mxCell>
        <mxCell id="8DI5RLa8rBgTrl0TAv30-24" value="AGSOGUA" style="swimlane;whiteSpace=wrap;html=1;" parent="8DI5RLa8rBgTrl0TAv30-1" vertex="1">
          <mxGeometry x="400" y="40" width="360" height="960" as="geometry" />
        </mxCell>
        <mxCell id="8DI5RLa8rBgTrl0TAv30-25" value="4. Proporcionar datos con parámetros de precios" style="rounded=1;whiteSpace=wrap;html=1;" parent="8DI5RLa8rBgTrl0TAv30-24" vertex="1">
          <mxGeometry x="80" y="111" width="120" height="60" as="geometry" />
        </mxCell>
        <mxCell id="8DI5RLa8rBgTrl0TAv30-26" value="Boletín semanal" style="swimlane;fontStyle=0;childLayout=stackLayout;horizontal=1;startSize=30;horizontalStack=0;resizeParent=1;resizeParentMax=0;resizeLast=0;collapsible=1;marginBottom=0;whiteSpace=wrap;html=1;" parent="8DI5RLa8rBgTrl0TAv30-24" vertex="1">
          <mxGeometry x="230" y="155" width="100" height="60" as="geometry" />
        </mxCell>
        <mxCell id="8DI5RLa8rBgTrl0TAv30-27" value="Precios por edad y sexo" style="text;strokeColor=none;fillColor=none;align=left;verticalAlign=middle;spacingLeft=4;spacingRight=4;overflow=hidden;points=[[0,0.5],[1,0.5]];portConstraint=eastwest;rotatable=0;whiteSpace=wrap;html=1;" parent="8DI5RLa8rBgTrl0TAv30-26" vertex="1">
          <mxGeometry y="30" width="100" height="30" as="geometry" />
        </mxCell>
        <mxCell id="8DI5RLa8rBgTrl0TAv30-28" value="" style="shape=image;html=1;verticalAlign=top;verticalLabelPosition=bottom;labelBackgroundColor=#ffffff;imageAspect=0;aspect=fixed;image=https://cdn4.iconfinder.com/data/icons/picons-social/57/23-whatsapp-2-128.png" parent="8DI5RLa8rBgTrl0TAv30-24" vertex="1">
          <mxGeometry x="300" y="100" width="50" height="50" as="geometry" />
        </mxCell>
        <mxCell id="8DI5RLa8rBgTrl0TAv30-29" value="" style="endArrow=none;dashed=1;html=1;dashPattern=1 3;strokeWidth=2;rounded=0;exitX=1;exitY=0.5;exitDx=0;exitDy=0;entryX=0.5;entryY=0;entryDx=0;entryDy=0;edgeStyle=orthogonalEdgeStyle;" parent="8DI5RLa8rBgTrl0TAv30-24" source="8DI5RLa8rBgTrl0TAv30-25" target="8DI5RLa8rBgTrl0TAv30-26" edge="1">
          <mxGeometry width="50" height="50" relative="1" as="geometry">
            <mxPoint x="250" y="360" as="sourcePoint" />
            <mxPoint x="300" y="310" as="targetPoint" />
          </mxGeometry>
        </mxCell>
        <mxCell id="8DI5RLa8rBgTrl0TAv30-30" value="Revisión del estatus de ganado por tipo" style="rounded=1;whiteSpace=wrap;html=1;" parent="8DI5RLa8rBgTrl0TAv30-24" vertex="1">
          <mxGeometry x="120" y="598" width="120" height="60" as="geometry" />
        </mxCell>
        <mxCell id="8DI5RLa8rBgTrl0TAv30-31" value="" style="endArrow=classic;html=1;rounded=0;fontSize=12;startSize=8;endSize=8;exitX=1;exitY=0.5;exitDx=0;exitDy=0;entryX=0;entryY=0.5;entryDx=0;entryDy=0;edgeStyle=orthogonalEdgeStyle;" parent="8DI5RLa8rBgTrl0TAv30-1" source="8DI5RLa8rBgTrl0TAv30-9" target="8DI5RLa8rBgTrl0TAv30-25" edge="1">
          <mxGeometry width="50" height="50" relative="1" as="geometry">
            <mxPoint x="270" y="420" as="sourcePoint" />
            <mxPoint x="320" y="370" as="targetPoint" />
          </mxGeometry>
        </mxCell>
        <mxCell id="8DI5RLa8rBgTrl0TAv30-32" value="Una sola vez" style="edgeLabel;html=1;align=center;verticalAlign=middle;resizable=0;points=[];" parent="8DI5RLa8rBgTrl0TAv30-31" connectable="0" vertex="1">
          <mxGeometry x="-0.6844" relative="1" as="geometry">
            <mxPoint as="offset" />
          </mxGeometry>
        </mxCell>
        <mxCell id="8DI5RLa8rBgTrl0TAv30-33" value="" style="endArrow=classic;html=1;rounded=0;fontSize=12;startSize=8;endSize=8;exitX=0.5;exitY=1;exitDx=0;exitDy=0;entryX=1;entryY=0.5;entryDx=0;entryDy=0;edgeStyle=orthogonalEdgeStyle;" parent="8DI5RLa8rBgTrl0TAv30-1" source="8DI5RLa8rBgTrl0TAv30-25" target="8DI5RLa8rBgTrl0TAv30-6" edge="1">
          <mxGeometry width="50" height="50" relative="1" as="geometry">
            <mxPoint x="500" y="480" as="sourcePoint" />
            <mxPoint x="550" y="430" as="targetPoint" />
          </mxGeometry>
        </mxCell>
      </root>
    </mxGraphModel>
  </diagram>
  <diagram name="PR-FN-00013 - Pesa de ganado" id="ply4Z0BIlygeCLuxo8_7">
    <mxGraphModel dx="1793" dy="1008" grid="1" gridSize="10" guides="1" tooltips="1" connect="1" arrows="1" fold="1" page="1" pageScale="1" pageWidth="850" pageHeight="1100" math="0" shadow="0">
      <root>
        <mxCell id="z76Yd-_TqC5u3ma_fdH--0" />
        <mxCell id="z76Yd-_TqC5u3ma_fdH--1" parent="z76Yd-_TqC5u3ma_fdH--0" />
        <mxCell id="z76Yd-_TqC5u3ma_fdH--2" value="Gerente General" style="swimlane;whiteSpace=wrap;html=1;movable=1;resizable=1;rotatable=1;deletable=1;editable=1;locked=0;connectable=1;fontSize=16;" vertex="1" parent="z76Yd-_TqC5u3ma_fdH--1">
          <mxGeometry x="40" y="40" width="360" height="1860" as="geometry" />
        </mxCell>
        <mxCell id="z76Yd-_TqC5u3ma_fdH--3" value="" style="edgeStyle=orthogonalEdgeStyle;rounded=0;orthogonalLoop=1;jettySize=auto;html=1;fontSize=16;" edge="1" parent="z76Yd-_TqC5u3ma_fdH--2" source="z76Yd-_TqC5u3ma_fdH--4" target="z76Yd-_TqC5u3ma_fdH--5">
          <mxGeometry relative="1" as="geometry" />
        </mxCell>
        <mxCell id="z76Yd-_TqC5u3ma_fdH--4" value="INICIO" style="html=1;dashed=0;whiteSpace=wrap;shape=mxgraph.dfd.start;fontSize=16;" vertex="1" parent="z76Yd-_TqC5u3ma_fdH--2">
          <mxGeometry x="120" y="40" width="80" height="30" as="geometry" />
        </mxCell>
        <mxCell id="z76Yd-_TqC5u3ma_fdH--5" value="1.¿Clasificación o Venta?" style="rhombus;whiteSpace=wrap;html=1;dashed=0;fontSize=16;" vertex="1" parent="z76Yd-_TqC5u3ma_fdH--2">
          <mxGeometry x="120" y="110" width="80" height="80" as="geometry" />
        </mxCell>
        <mxCell id="z76Yd-_TqC5u3ma_fdH--6" style="edgeStyle=orthogonalEdgeStyle;rounded=0;orthogonalLoop=1;jettySize=auto;html=1;entryX=0.5;entryY=0;entryDx=0;entryDy=0;exitX=0.5;exitY=1;exitDx=0;exitDy=0;fontSize=16;" edge="1" parent="z76Yd-_TqC5u3ma_fdH--2" source="z76Yd-_TqC5u3ma_fdH--18" target="z76Yd-_TqC5u3ma_fdH--7">
          <mxGeometry relative="1" as="geometry">
            <mxPoint x="180" y="911" as="targetPoint" />
            <mxPoint x="180" y="811" as="sourcePoint" />
          </mxGeometry>
        </mxCell>
        <mxCell id="z76Yd-_TqC5u3ma_fdH--7" value="Crianza - Alimentación por concentrado" style="shape=offPageConnector;whiteSpace=wrap;html=1;fontSize=16;" vertex="1" parent="z76Yd-_TqC5u3ma_fdH--2">
          <mxGeometry x="139" y="879" width="80" height="80" as="geometry" />
        </mxCell>
        <mxCell id="z76Yd-_TqC5u3ma_fdH--8" value="" style="edgeStyle=orthogonalEdgeStyle;rounded=0;orthogonalLoop=1;jettySize=auto;html=1;fontSize=16;" edge="1" parent="z76Yd-_TqC5u3ma_fdH--2" source="z76Yd-_TqC5u3ma_fdH--9" target="z76Yd-_TqC5u3ma_fdH--11">
          <mxGeometry relative="1" as="geometry" />
        </mxCell>
        <mxCell id="z76Yd-_TqC5u3ma_fdH--9" value="9. Documentar peso en listas" style="rounded=1;whiteSpace=wrap;html=1;fontSize=16;" vertex="1" parent="z76Yd-_TqC5u3ma_fdH--2">
          <mxGeometry x="120" y="562" width="120" height="60" as="geometry" />
        </mxCell>
        <mxCell id="z76Yd-_TqC5u3ma_fdH--10" value="No" style="edgeStyle=orthogonalEdgeStyle;rounded=0;orthogonalLoop=1;jettySize=auto;html=1;exitX=1;exitY=0.5;exitDx=0;exitDy=0;fontSize=16;" edge="1" parent="z76Yd-_TqC5u3ma_fdH--2" source="z76Yd-_TqC5u3ma_fdH--11" target="z76Yd-_TqC5u3ma_fdH--12">
          <mxGeometry relative="1" as="geometry" />
        </mxCell>
        <mxCell id="z76Yd-_TqC5u3ma_fdH--11" value="10. ¿Es novilla de descarte?" style="rhombus;whiteSpace=wrap;html=1;rounded=0;fontSize=16;" vertex="1" parent="z76Yd-_TqC5u3ma_fdH--2">
          <mxGeometry x="140" y="651" width="80" height="80" as="geometry" />
        </mxCell>
        <mxCell id="z76Yd-_TqC5u3ma_fdH--12" value="Crianza - Producción" style="shape=offPageConnector;whiteSpace=wrap;html=1;fontSize=16;" vertex="1" parent="z76Yd-_TqC5u3ma_fdH--2">
          <mxGeometry x="240" y="879" width="80" height="80" as="geometry" />
        </mxCell>
        <mxCell id="z76Yd-_TqC5u3ma_fdH--13" value="Si" style="edgeStyle=orthogonalEdgeStyle;rounded=0;orthogonalLoop=1;jettySize=auto;html=1;entryX=0.5;entryY=0;entryDx=0;entryDy=0;fontSize=16;" edge="1" parent="z76Yd-_TqC5u3ma_fdH--2" target="z76Yd-_TqC5u3ma_fdH--18">
          <mxGeometry relative="1" as="geometry">
            <mxPoint x="180" y="770" as="targetPoint" />
            <mxPoint x="180.0588235294117" y="729.9411764705878" as="sourcePoint" />
          </mxGeometry>
        </mxCell>
        <mxCell id="z76Yd-_TqC5u3ma_fdH--14" value="16.Llenar guía de transporte" style="rounded=1;whiteSpace=wrap;html=1;fontSize=16;" vertex="1" parent="z76Yd-_TqC5u3ma_fdH--2">
          <mxGeometry x="80" y="1107" width="120" height="60" as="geometry" />
        </mxCell>
        <mxCell id="z76Yd-_TqC5u3ma_fdH--15" value="17. Calibrar báscula para venta" style="rounded=1;whiteSpace=wrap;html=1;fontSize=16;" vertex="1" parent="z76Yd-_TqC5u3ma_fdH--2">
          <mxGeometry x="80" y="1210" width="120" height="60" as="geometry" />
        </mxCell>
        <mxCell id="z76Yd-_TqC5u3ma_fdH--16" value="" style="edgeStyle=orthogonalEdgeStyle;rounded=0;orthogonalLoop=1;jettySize=auto;html=1;fontSize=16;" edge="1" parent="z76Yd-_TqC5u3ma_fdH--2" source="z76Yd-_TqC5u3ma_fdH--14" target="z76Yd-_TqC5u3ma_fdH--15">
          <mxGeometry relative="1" as="geometry" />
        </mxCell>
        <mxCell id="z76Yd-_TqC5u3ma_fdH--17" value="Actualización de listas" style="shape=offPageConnector;whiteSpace=wrap;html=1;fontSize=16;" vertex="1" parent="z76Yd-_TqC5u3ma_fdH--2">
          <mxGeometry x="100" y="1763" width="80" height="80" as="geometry" />
        </mxCell>
        <mxCell id="z76Yd-_TqC5u3ma_fdH--18" value="Asignación de correlativo" style="shape=offPageConnector;whiteSpace=wrap;html=1;fontSize=16;" vertex="1" parent="z76Yd-_TqC5u3ma_fdH--2">
          <mxGeometry x="139" y="771" width="80" height="80" as="geometry" />
        </mxCell>
        <mxCell id="z76Yd-_TqC5u3ma_fdH--19" value="21. Documentar peso en listas" style="rounded=1;whiteSpace=wrap;html=1;fontSize=16;" vertex="1" parent="z76Yd-_TqC5u3ma_fdH--2">
          <mxGeometry x="80" y="1513" width="120" height="60" as="geometry" />
        </mxCell>
        <mxCell id="z76Yd-_TqC5u3ma_fdH--20" style="edgeStyle=orthogonalEdgeStyle;rounded=0;orthogonalLoop=1;jettySize=auto;html=1;exitX=0.5;exitY=0.5;exitDx=0;exitDy=15;exitPerimeter=0;fontSize=16;" edge="1" parent="z76Yd-_TqC5u3ma_fdH--2" source="z76Yd-_TqC5u3ma_fdH--21" target="z76Yd-_TqC5u3ma_fdH--14">
          <mxGeometry relative="1" as="geometry" />
        </mxCell>
        <mxCell id="z76Yd-_TqC5u3ma_fdH--21" value="INICIO" style="html=1;dashed=0;whiteSpace=wrap;shape=mxgraph.dfd.start;fontSize=16;" vertex="1" parent="z76Yd-_TqC5u3ma_fdH--2">
          <mxGeometry x="100" y="1040" width="80" height="30" as="geometry" />
        </mxCell>
        <mxCell id="z76Yd-_TqC5u3ma_fdH--22" value="Vaqueros" style="swimlane;whiteSpace=wrap;html=1;movable=1;resizable=1;rotatable=1;deletable=1;editable=1;locked=0;connectable=1;fontSize=16;" vertex="1" parent="z76Yd-_TqC5u3ma_fdH--1">
          <mxGeometry x="400" y="40" width="260" height="1860" as="geometry" />
        </mxCell>
        <mxCell id="z76Yd-_TqC5u3ma_fdH--23" value="" style="edgeStyle=orthogonalEdgeStyle;rounded=0;orthogonalLoop=1;jettySize=auto;html=1;fontSize=16;" edge="1" parent="z76Yd-_TqC5u3ma_fdH--22" source="z76Yd-_TqC5u3ma_fdH--24" target="z76Yd-_TqC5u3ma_fdH--28">
          <mxGeometry relative="1" as="geometry" />
        </mxCell>
        <mxCell id="z76Yd-_TqC5u3ma_fdH--24" value="2. Preparar ganado" style="rounded=1;whiteSpace=wrap;html=1;fontSize=16;" vertex="1" parent="z76Yd-_TqC5u3ma_fdH--22">
          <mxGeometry x="100" y="120" width="120" height="60" as="geometry" />
        </mxCell>
        <mxCell id="z76Yd-_TqC5u3ma_fdH--25" value="" style="edgeStyle=orthogonalEdgeStyle;rounded=0;orthogonalLoop=1;jettySize=auto;html=1;fontSize=16;" edge="1" parent="z76Yd-_TqC5u3ma_fdH--22" source="z76Yd-_TqC5u3ma_fdH--32" target="z76Yd-_TqC5u3ma_fdH--35">
          <mxGeometry relative="1" as="geometry" />
        </mxCell>
        <mxCell id="z76Yd-_TqC5u3ma_fdH--26" value="4. Calibrar báscula" style="rounded=1;whiteSpace=wrap;html=1;fontSize=16;" vertex="1" parent="z76Yd-_TqC5u3ma_fdH--22">
          <mxGeometry x="-260" y="206" width="120" height="60" as="geometry" />
        </mxCell>
        <mxCell id="z76Yd-_TqC5u3ma_fdH--27" value="" style="edgeStyle=orthogonalEdgeStyle;rounded=0;orthogonalLoop=1;jettySize=auto;html=1;exitX=0.5;exitY=1;exitDx=0;exitDy=0;fontSize=16;" edge="1" parent="z76Yd-_TqC5u3ma_fdH--22" source="z76Yd-_TqC5u3ma_fdH--26">
          <mxGeometry relative="1" as="geometry">
            <Array as="points">
              <mxPoint x="-200" y="321" />
            </Array>
            <mxPoint x="-200" y="290" as="sourcePoint" />
            <mxPoint x="100" y="321" as="targetPoint" />
          </mxGeometry>
        </mxCell>
        <mxCell id="z76Yd-_TqC5u3ma_fdH--28" value="3. Definir báscula cercana" style="rounded=1;whiteSpace=wrap;html=1;fontSize=16;" vertex="1" parent="z76Yd-_TqC5u3ma_fdH--22">
          <mxGeometry x="100" y="206" width="120" height="60" as="geometry" />
        </mxCell>
        <mxCell id="z76Yd-_TqC5u3ma_fdH--29" value="" style="edgeStyle=orthogonalEdgeStyle;rounded=0;orthogonalLoop=1;jettySize=auto;html=1;fontSize=16;" edge="1" parent="z76Yd-_TqC5u3ma_fdH--22" source="z76Yd-_TqC5u3ma_fdH--28" target="z76Yd-_TqC5u3ma_fdH--26">
          <mxGeometry relative="1" as="geometry" />
        </mxCell>
        <mxCell id="z76Yd-_TqC5u3ma_fdH--30" value="" style="edgeStyle=orthogonalEdgeStyle;rounded=0;orthogonalLoop=1;jettySize=auto;html=1;fontSize=16;" edge="1" parent="z76Yd-_TqC5u3ma_fdH--22" source="z76Yd-_TqC5u3ma_fdH--31" target="z76Yd-_TqC5u3ma_fdH--32">
          <mxGeometry relative="1" as="geometry" />
        </mxCell>
        <mxCell id="z76Yd-_TqC5u3ma_fdH--31" value="5.&amp;nbsp;&lt;span style=&quot;background-color: initial; font-size: 16px;&quot;&gt;Trasladar ganado a báscula&lt;/span&gt;" style="rounded=1;whiteSpace=wrap;html=1;fontSize=16;" vertex="1" parent="z76Yd-_TqC5u3ma_fdH--22">
          <mxGeometry x="100" y="287" width="120" height="60" as="geometry" />
        </mxCell>
        <mxCell id="z76Yd-_TqC5u3ma_fdH--32" value="6. Ordenar ganado" style="rounded=1;whiteSpace=wrap;html=1;fontSize=16;" vertex="1" parent="z76Yd-_TqC5u3ma_fdH--22">
          <mxGeometry x="100" y="377" width="120" height="60" as="geometry" />
        </mxCell>
        <mxCell id="z76Yd-_TqC5u3ma_fdH--33" value="8. Pesar ganado" style="rounded=1;whiteSpace=wrap;html=1;fontSize=16;" vertex="1" parent="z76Yd-_TqC5u3ma_fdH--22">
          <mxGeometry x="-240" y="471" width="120" height="60" as="geometry" />
        </mxCell>
        <mxCell id="z76Yd-_TqC5u3ma_fdH--34" value="1..n (ganado joven)" style="edgeStyle=orthogonalEdgeStyle;rounded=0;orthogonalLoop=1;jettySize=auto;html=1;exitX=0;exitY=0.5;exitDx=0;exitDy=0;entryX=0.25;entryY=0;entryDx=0;entryDy=0;fontSize=16;" edge="1" parent="z76Yd-_TqC5u3ma_fdH--22" source="z76Yd-_TqC5u3ma_fdH--33" target="z76Yd-_TqC5u3ma_fdH--33">
          <mxGeometry relative="1" as="geometry">
            <Array as="points">
              <mxPoint x="-280" y="501" />
              <mxPoint x="-280" y="430" />
              <mxPoint x="-210" y="430" />
            </Array>
          </mxGeometry>
        </mxCell>
        <mxCell id="z76Yd-_TqC5u3ma_fdH--35" value="7. Vacunar ganado" style="rounded=1;whiteSpace=wrap;html=1;fontSize=16;" vertex="1" parent="z76Yd-_TqC5u3ma_fdH--22">
          <mxGeometry x="100" y="471" width="120" height="60" as="geometry" />
        </mxCell>
        <mxCell id="z76Yd-_TqC5u3ma_fdH--36" value="" style="edgeStyle=orthogonalEdgeStyle;rounded=0;orthogonalLoop=1;jettySize=auto;html=1;fontSize=16;" edge="1" parent="z76Yd-_TqC5u3ma_fdH--22" source="z76Yd-_TqC5u3ma_fdH--35" target="z76Yd-_TqC5u3ma_fdH--33">
          <mxGeometry relative="1" as="geometry" />
        </mxCell>
        <mxCell id="z76Yd-_TqC5u3ma_fdH--37" value="" style="edgeStyle=orthogonalEdgeStyle;rounded=0;orthogonalLoop=1;jettySize=auto;html=1;fontSize=16;" edge="1" parent="z76Yd-_TqC5u3ma_fdH--22" source="z76Yd-_TqC5u3ma_fdH--38" target="z76Yd-_TqC5u3ma_fdH--40">
          <mxGeometry relative="1" as="geometry" />
        </mxCell>
        <mxCell id="z76Yd-_TqC5u3ma_fdH--38" value="11. Seleccionar ganado" style="rounded=1;whiteSpace=wrap;html=1;fontSize=16;" vertex="1" parent="z76Yd-_TqC5u3ma_fdH--22">
          <mxGeometry x="90" y="941" width="120" height="60" as="geometry" />
        </mxCell>
        <mxCell id="z76Yd-_TqC5u3ma_fdH--39" value="" style="edgeStyle=orthogonalEdgeStyle;rounded=0;orthogonalLoop=1;jettySize=auto;html=1;fontSize=16;" edge="1" parent="z76Yd-_TqC5u3ma_fdH--22" source="z76Yd-_TqC5u3ma_fdH--40" target="z76Yd-_TqC5u3ma_fdH--42">
          <mxGeometry relative="1" as="geometry" />
        </mxCell>
        <mxCell id="z76Yd-_TqC5u3ma_fdH--40" value="12. Definir báscula cercana" style="rounded=1;whiteSpace=wrap;html=1;fontSize=16;" vertex="1" parent="z76Yd-_TqC5u3ma_fdH--22">
          <mxGeometry x="90" y="1031" width="120" height="60" as="geometry" />
        </mxCell>
        <mxCell id="z76Yd-_TqC5u3ma_fdH--41" value="" style="edgeStyle=orthogonalEdgeStyle;rounded=0;orthogonalLoop=1;jettySize=auto;html=1;fontSize=16;" edge="1" parent="z76Yd-_TqC5u3ma_fdH--22" source="z76Yd-_TqC5u3ma_fdH--42" target="z76Yd-_TqC5u3ma_fdH--43">
          <mxGeometry relative="1" as="geometry" />
        </mxCell>
        <mxCell id="z76Yd-_TqC5u3ma_fdH--42" value="13. Separar ganado" style="rounded=1;whiteSpace=wrap;html=1;fontSize=16;" vertex="1" parent="z76Yd-_TqC5u3ma_fdH--22">
          <mxGeometry x="90" y="1124" width="120" height="60" as="geometry" />
        </mxCell>
        <mxCell id="z76Yd-_TqC5u3ma_fdH--43" value="14. Preparar ganado" style="rounded=1;whiteSpace=wrap;html=1;fontSize=16;" vertex="1" parent="z76Yd-_TqC5u3ma_fdH--22">
          <mxGeometry x="90" y="1219" width="120" height="60" as="geometry" />
        </mxCell>
        <mxCell id="z76Yd-_TqC5u3ma_fdH--44" value="18. Marcar ganado" style="rounded=1;whiteSpace=wrap;html=1;fontSize=16;" vertex="1" parent="z76Yd-_TqC5u3ma_fdH--22">
          <mxGeometry x="90" y="1306" width="120" height="60" as="geometry" />
        </mxCell>
        <mxCell id="z76Yd-_TqC5u3ma_fdH--45" value="Mitad del proceso" style="edgeStyle=orthogonalEdgeStyle;rounded=0;orthogonalLoop=1;jettySize=auto;html=1;dashed=1;entryX=0.25;entryY=1;entryDx=0;entryDy=0;fontSize=16;" edge="1" parent="z76Yd-_TqC5u3ma_fdH--22" source="z76Yd-_TqC5u3ma_fdH--33" target="z76Yd-_TqC5u3ma_fdH--26">
          <mxGeometry relative="1" as="geometry">
            <mxPoint x="-180" y="450" as="targetPoint" />
            <Array as="points">
              <mxPoint x="-180" y="400" />
              <mxPoint x="-230" y="400" />
            </Array>
          </mxGeometry>
        </mxCell>
        <mxCell id="z76Yd-_TqC5u3ma_fdH--46" value="Mitad del proceso" style="edgeStyle=orthogonalEdgeStyle;rounded=0;orthogonalLoop=1;jettySize=auto;html=1;exitX=0.75;exitY=1;exitDx=0;exitDy=0;entryX=0.75;entryY=0;entryDx=0;entryDy=0;fontSize=16;" edge="1" parent="z76Yd-_TqC5u3ma_fdH--22" source="z76Yd-_TqC5u3ma_fdH--26" target="z76Yd-_TqC5u3ma_fdH--33">
          <mxGeometry relative="1" as="geometry">
            <mxPoint x="-150" y="450" as="sourcePoint" />
            <Array as="points">
              <mxPoint x="-170" y="350" />
              <mxPoint x="-150" y="350" />
            </Array>
          </mxGeometry>
        </mxCell>
        <mxCell id="z76Yd-_TqC5u3ma_fdH--47" value="Cliente" style="swimlane;whiteSpace=wrap;html=1;movable=1;resizable=1;rotatable=1;deletable=1;editable=1;locked=0;connectable=1;fontSize=16;" vertex="1" parent="z76Yd-_TqC5u3ma_fdH--1">
          <mxGeometry x="660" y="40" width="270" height="1860" as="geometry" />
        </mxCell>
        <mxCell id="z76Yd-_TqC5u3ma_fdH--48" value="15. Ordenar ganado" style="rounded=1;whiteSpace=wrap;html=1;fontSize=16;" vertex="1" parent="z76Yd-_TqC5u3ma_fdH--47">
          <mxGeometry x="75" y="1305" width="120" height="60" as="geometry" />
        </mxCell>
        <mxCell id="z76Yd-_TqC5u3ma_fdH--49" value="24. Calcular valor" style="rounded=1;whiteSpace=wrap;html=1;fontSize=16;" vertex="1" parent="z76Yd-_TqC5u3ma_fdH--47">
          <mxGeometry x="-540" y="1675" width="120" height="60" as="geometry" />
        </mxCell>
        <mxCell id="z76Yd-_TqC5u3ma_fdH--50" value="23. Firmar guía de traslado" style="rounded=1;whiteSpace=wrap;html=1;fontSize=16;" vertex="1" parent="z76Yd-_TqC5u3ma_fdH--47">
          <mxGeometry x="70" y="1614" width="120" height="60" as="geometry" />
        </mxCell>
        <mxCell id="z76Yd-_TqC5u3ma_fdH--51" value="" style="edgeStyle=orthogonalEdgeStyle;rounded=0;orthogonalLoop=1;jettySize=auto;html=1;fontSize=16;" edge="1" parent="z76Yd-_TqC5u3ma_fdH--47" source="z76Yd-_TqC5u3ma_fdH--50" target="z76Yd-_TqC5u3ma_fdH--49">
          <mxGeometry relative="1" as="geometry" />
        </mxCell>
        <mxCell id="z76Yd-_TqC5u3ma_fdH--52" value="Secretaria" style="swimlane;whiteSpace=wrap;html=1;movable=1;resizable=1;rotatable=1;deletable=1;editable=1;locked=0;connectable=1;fontSize=16;" vertex="1" parent="z76Yd-_TqC5u3ma_fdH--1">
          <mxGeometry x="930" y="40" width="230" height="1860" as="geometry" />
        </mxCell>
        <mxCell id="z76Yd-_TqC5u3ma_fdH--53" style="edgeStyle=orthogonalEdgeStyle;rounded=0;orthogonalLoop=1;jettySize=auto;html=1;exitX=0.5;exitY=1;exitDx=0;exitDy=0;entryX=1;entryY=0.5;entryDx=0;entryDy=0;fontSize=16;" edge="1" parent="z76Yd-_TqC5u3ma_fdH--52" source="z76Yd-_TqC5u3ma_fdH--55" target="z76Yd-_TqC5u3ma_fdH--57">
          <mxGeometry relative="1" as="geometry" />
        </mxCell>
        <mxCell id="z76Yd-_TqC5u3ma_fdH--54" value="19. Pesar ganado" style="rounded=1;whiteSpace=wrap;html=1;fontSize=16;" vertex="1" parent="z76Yd-_TqC5u3ma_fdH--52">
          <mxGeometry x="-440" y="1428" width="120" height="60" as="geometry" />
        </mxCell>
        <mxCell id="z76Yd-_TqC5u3ma_fdH--55" value="20. Documentar peso clientes" style="rounded=1;whiteSpace=wrap;html=1;fontSize=16;" vertex="1" parent="z76Yd-_TqC5u3ma_fdH--52">
          <mxGeometry x="80" y="1428" width="120" height="60" as="geometry" />
        </mxCell>
        <mxCell id="z76Yd-_TqC5u3ma_fdH--56" value="" style="edgeStyle=orthogonalEdgeStyle;rounded=0;orthogonalLoop=1;jettySize=auto;html=1;fontSize=16;" edge="1" parent="z76Yd-_TqC5u3ma_fdH--52" source="z76Yd-_TqC5u3ma_fdH--54" target="z76Yd-_TqC5u3ma_fdH--55">
          <mxGeometry relative="1" as="geometry" />
        </mxCell>
        <mxCell id="z76Yd-_TqC5u3ma_fdH--57" value="22. Cargar ganado en camión" style="rounded=1;whiteSpace=wrap;html=1;fontSize=16;" vertex="1" parent="z76Yd-_TqC5u3ma_fdH--52">
          <mxGeometry x="-199" y="1513" width="120" height="60" as="geometry" />
        </mxCell>
        <mxCell id="z76Yd-_TqC5u3ma_fdH--58" value="Generación de facturas" style="shape=offPageConnector;whiteSpace=wrap;html=1;fontSize=16;" vertex="1" parent="z76Yd-_TqC5u3ma_fdH--52">
          <mxGeometry x="90" y="1763" width="80" height="80" as="geometry" />
        </mxCell>
        <mxCell id="z76Yd-_TqC5u3ma_fdH--59" style="edgeStyle=orthogonalEdgeStyle;rounded=0;orthogonalLoop=1;jettySize=auto;html=1;exitX=0.5;exitY=1;exitDx=0;exitDy=0;entryX=0.5;entryY=0;entryDx=0;entryDy=0;fontSize=16;" edge="1" parent="z76Yd-_TqC5u3ma_fdH--52" source="z76Yd-_TqC5u3ma_fdH--60" target="z76Yd-_TqC5u3ma_fdH--58">
          <mxGeometry relative="1" as="geometry" />
        </mxCell>
        <mxCell id="z76Yd-_TqC5u3ma_fdH--60" value="Cobro de ganado" style="shape=offPageConnector;whiteSpace=wrap;html=1;fontSize=16;" vertex="1" parent="z76Yd-_TqC5u3ma_fdH--52">
          <mxGeometry x="90" y="1665" width="80" height="80" as="geometry" />
        </mxCell>
        <mxCell id="z76Yd-_TqC5u3ma_fdH--61" value="1..n (ganado seleccionado)" style="edgeStyle=orthogonalEdgeStyle;rounded=0;orthogonalLoop=1;jettySize=auto;html=1;exitX=0;exitY=0.5;exitDx=0;exitDy=0;entryX=0.25;entryY=0;entryDx=0;entryDy=0;fontSize=16;" edge="1" parent="z76Yd-_TqC5u3ma_fdH--52" source="z76Yd-_TqC5u3ma_fdH--54" target="z76Yd-_TqC5u3ma_fdH--54">
          <mxGeometry relative="1" as="geometry">
            <Array as="points">
              <mxPoint x="-490" y="1458" />
              <mxPoint x="-490" y="1390" />
              <mxPoint x="-410" y="1390" />
            </Array>
          </mxGeometry>
        </mxCell>
        <mxCell id="z76Yd-_TqC5u3ma_fdH--62" value="Clasificación" style="edgeStyle=orthogonalEdgeStyle;rounded=0;orthogonalLoop=1;jettySize=auto;html=1;exitX=1;exitY=0.5;exitDx=0;exitDy=0;entryX=0;entryY=0.5;entryDx=0;entryDy=0;fontSize=16;" edge="1" parent="z76Yd-_TqC5u3ma_fdH--1" source="z76Yd-_TqC5u3ma_fdH--5" target="z76Yd-_TqC5u3ma_fdH--24">
          <mxGeometry relative="1" as="geometry" />
        </mxCell>
        <mxCell id="z76Yd-_TqC5u3ma_fdH--63" value="" style="edgeStyle=orthogonalEdgeStyle;rounded=0;orthogonalLoop=1;jettySize=auto;html=1;fontSize=16;" edge="1" parent="z76Yd-_TqC5u3ma_fdH--1" source="z76Yd-_TqC5u3ma_fdH--33" target="z76Yd-_TqC5u3ma_fdH--9">
          <mxGeometry relative="1" as="geometry" />
        </mxCell>
        <mxCell id="z76Yd-_TqC5u3ma_fdH--64" value="" style="edgeStyle=orthogonalEdgeStyle;rounded=0;orthogonalLoop=1;jettySize=auto;html=1;fontSize=16;" edge="1" parent="z76Yd-_TqC5u3ma_fdH--1" source="z76Yd-_TqC5u3ma_fdH--43" target="z76Yd-_TqC5u3ma_fdH--48">
          <mxGeometry relative="1" as="geometry" />
        </mxCell>
        <mxCell id="z76Yd-_TqC5u3ma_fdH--65" value="" style="edgeStyle=orthogonalEdgeStyle;rounded=0;orthogonalLoop=1;jettySize=auto;html=1;exitX=0;exitY=0.5;exitDx=0;exitDy=0;entryX=1;entryY=0.5;entryDx=0;entryDy=0;fontSize=16;" edge="1" parent="z76Yd-_TqC5u3ma_fdH--1" source="z76Yd-_TqC5u3ma_fdH--48" target="z76Yd-_TqC5u3ma_fdH--44">
          <mxGeometry relative="1" as="geometry">
            <mxPoint x="880" y="1421" as="sourcePoint" />
          </mxGeometry>
        </mxCell>
        <mxCell id="z76Yd-_TqC5u3ma_fdH--66" value="" style="edgeStyle=orthogonalEdgeStyle;rounded=0;orthogonalLoop=1;jettySize=auto;html=1;exitX=0.5;exitY=1;exitDx=0;exitDy=0;entryX=0;entryY=0.5;entryDx=0;entryDy=0;fontSize=16;" edge="1" parent="z76Yd-_TqC5u3ma_fdH--1" source="z76Yd-_TqC5u3ma_fdH--15" target="z76Yd-_TqC5u3ma_fdH--44">
          <mxGeometry relative="1" as="geometry">
            <Array as="points">
              <mxPoint x="180" y="1376" />
            </Array>
          </mxGeometry>
        </mxCell>
        <mxCell id="z76Yd-_TqC5u3ma_fdH--67" value="" style="edgeStyle=orthogonalEdgeStyle;rounded=0;orthogonalLoop=1;jettySize=auto;html=1;fontSize=16;" edge="1" parent="z76Yd-_TqC5u3ma_fdH--1" source="z76Yd-_TqC5u3ma_fdH--44" target="z76Yd-_TqC5u3ma_fdH--54">
          <mxGeometry relative="1" as="geometry" />
        </mxCell>
        <mxCell id="z76Yd-_TqC5u3ma_fdH--68" value="" style="edgeStyle=orthogonalEdgeStyle;rounded=0;orthogonalLoop=1;jettySize=auto;html=1;entryX=0;entryY=0.5;entryDx=0;entryDy=0;fontSize=16;" edge="1" parent="z76Yd-_TqC5u3ma_fdH--1" source="z76Yd-_TqC5u3ma_fdH--49" target="z76Yd-_TqC5u3ma_fdH--60">
          <mxGeometry relative="1" as="geometry">
            <mxPoint x="720" y="1755" as="targetPoint" />
          </mxGeometry>
        </mxCell>
        <mxCell id="z76Yd-_TqC5u3ma_fdH--69" value="" style="edgeStyle=orthogonalEdgeStyle;rounded=0;orthogonalLoop=1;jettySize=auto;html=1;entryX=0.5;entryY=0;entryDx=0;entryDy=0;fontSize=16;" edge="1" parent="z76Yd-_TqC5u3ma_fdH--1" source="z76Yd-_TqC5u3ma_fdH--49" target="z76Yd-_TqC5u3ma_fdH--17">
          <mxGeometry relative="1" as="geometry">
            <mxPoint x="180" y="1865" as="targetPoint" />
          </mxGeometry>
        </mxCell>
        <mxCell id="z76Yd-_TqC5u3ma_fdH--70" style="edgeStyle=orthogonalEdgeStyle;rounded=0;orthogonalLoop=1;jettySize=auto;html=1;exitX=0.5;exitY=1;exitDx=0;exitDy=0;fontSize=16;" edge="1" parent="z76Yd-_TqC5u3ma_fdH--1" source="z76Yd-_TqC5u3ma_fdH--57" target="z76Yd-_TqC5u3ma_fdH--50">
          <mxGeometry relative="1" as="geometry" />
        </mxCell>
        <mxCell id="z76Yd-_TqC5u3ma_fdH--71" value="" style="edgeStyle=orthogonalEdgeStyle;rounded=0;orthogonalLoop=1;jettySize=auto;html=1;exitX=0.5;exitY=1;exitDx=0;exitDy=0;fontSize=16;" edge="1" parent="z76Yd-_TqC5u3ma_fdH--1" source="z76Yd-_TqC5u3ma_fdH--54" target="z76Yd-_TqC5u3ma_fdH--19">
          <mxGeometry relative="1" as="geometry" />
        </mxCell>
        <mxCell id="z76Yd-_TqC5u3ma_fdH--72" value="" style="edgeStyle=orthogonalEdgeStyle;rounded=0;orthogonalLoop=1;jettySize=auto;html=1;fontSize=16;" edge="1" parent="z76Yd-_TqC5u3ma_fdH--1" source="z76Yd-_TqC5u3ma_fdH--19" target="z76Yd-_TqC5u3ma_fdH--57">
          <mxGeometry relative="1" as="geometry" />
        </mxCell>
        <mxCell id="z76Yd-_TqC5u3ma_fdH--73" value="Venta" style="edgeStyle=orthogonalEdgeStyle;rounded=0;orthogonalLoop=1;jettySize=auto;html=1;exitX=0;exitY=0.5;exitDx=0;exitDy=0;entryX=0;entryY=0.5;entryDx=0;entryDy=0;fontSize=16;" edge="1" parent="z76Yd-_TqC5u3ma_fdH--1" source="z76Yd-_TqC5u3ma_fdH--5" target="z76Yd-_TqC5u3ma_fdH--38">
          <mxGeometry relative="1" as="geometry">
            <Array as="points">
              <mxPoint x="60" y="190" />
              <mxPoint x="60" y="1011" />
            </Array>
          </mxGeometry>
        </mxCell>
      </root>
    </mxGraphModel>
  </diagram>
  <diagram id="SBqTeY6dg39gXx3RGl3p" name="PR-FN-00068 - Venta de ganado">
    <mxGraphModel dx="2206" dy="1240" grid="1" gridSize="10" guides="1" tooltips="1" connect="1" arrows="1" fold="1" page="1" pageScale="1" pageWidth="850" pageHeight="1100" math="0" shadow="0">
      <root>
        <mxCell id="0" />
        <mxCell id="1" parent="0" />
        <mxCell id="oYHx6eltpZ1rt-yPD6hr-1" value="Gerente General" style="swimlane;whiteSpace=wrap;html=1;movable=1;resizable=1;rotatable=1;deletable=1;editable=1;locked=0;connectable=1;fontSize=16;verticalAlign=bottom;horizontal=1;" parent="1" vertex="1">
          <mxGeometry x="41" y="40" width="360" height="1480" as="geometry" />
        </mxCell>
        <mxCell id="LXsfF5SBqkzXyGqB3FXE-5" style="edgeStyle=orthogonalEdgeStyle;rounded=0;orthogonalLoop=1;jettySize=auto;html=1;exitX=0;exitY=0.5;exitDx=0;exitDy=0;exitPerimeter=0;entryX=0;entryY=0.5;entryDx=0;entryDy=0;fontSize=16;" edge="1" parent="oYHx6eltpZ1rt-yPD6hr-1" source="oYHx6eltpZ1rt-yPD6hr-3" target="LXsfF5SBqkzXyGqB3FXE-3">
          <mxGeometry relative="1" as="geometry">
            <Array as="points">
              <mxPoint x="10" y="75" />
              <mxPoint x="10" y="1060" />
            </Array>
          </mxGeometry>
        </mxCell>
        <mxCell id="oYHx6eltpZ1rt-yPD6hr-3" value="INICIO" style="html=1;dashed=0;whiteSpace=wrap;shape=mxgraph.dfd.start;fontSize=16;" parent="oYHx6eltpZ1rt-yPD6hr-1" vertex="1">
          <mxGeometry x="127" y="60" width="80" height="30" as="geometry" />
        </mxCell>
        <mxCell id="yg4im8KjUyEwOgaLJjGs-12" style="edgeStyle=orthogonalEdgeStyle;rounded=0;orthogonalLoop=1;jettySize=auto;html=1;exitX=0.5;exitY=1;exitDx=0;exitDy=0;entryX=0.5;entryY=0;entryDx=0;entryDy=0;fontSize=16;" edge="1" parent="oYHx6eltpZ1rt-yPD6hr-1" source="yg4im8KjUyEwOgaLJjGs-10" target="yg4im8KjUyEwOgaLJjGs-2">
          <mxGeometry relative="1" as="geometry" />
        </mxCell>
        <mxCell id="yg4im8KjUyEwOgaLJjGs-10" value="3. Revisar Disponibilidad" style="rounded=1;whiteSpace=wrap;html=1;fontSize=16;" vertex="1" parent="oYHx6eltpZ1rt-yPD6hr-1">
          <mxGeometry x="107" y="240" width="120" height="60" as="geometry" />
        </mxCell>
        <mxCell id="yg4im8KjUyEwOgaLJjGs-3" value="1. Enviar listas de ganado" style="rounded=1;whiteSpace=wrap;html=1;fontSize=16;" vertex="1" parent="oYHx6eltpZ1rt-yPD6hr-1">
          <mxGeometry x="107" y="130" width="120" height="60" as="geometry" />
        </mxCell>
        <mxCell id="yg4im8KjUyEwOgaLJjGs-5" value="" style="edgeStyle=orthogonalEdgeStyle;rounded=0;orthogonalLoop=1;jettySize=auto;html=1;entryX=0.5;entryY=0;entryDx=0;entryDy=0;exitX=0.5;exitY=0.5;exitDx=0;exitDy=15.000000000000002;exitPerimeter=0;fontSize=16;" edge="1" parent="oYHx6eltpZ1rt-yPD6hr-1" source="oYHx6eltpZ1rt-yPD6hr-3" target="yg4im8KjUyEwOgaLJjGs-3">
          <mxGeometry relative="1" as="geometry" />
        </mxCell>
        <mxCell id="yg4im8KjUyEwOgaLJjGs-14" value="No" style="edgeStyle=orthogonalEdgeStyle;rounded=0;orthogonalLoop=1;jettySize=auto;html=1;exitX=0;exitY=0.5;exitDx=0;exitDy=0;entryX=0.5;entryY=0;entryDx=0;entryDy=0;fontSize=16;" edge="1" parent="oYHx6eltpZ1rt-yPD6hr-1" source="yg4im8KjUyEwOgaLJjGs-2" target="yg4im8KjUyEwOgaLJjGs-13">
          <mxGeometry relative="1" as="geometry" />
        </mxCell>
        <mxCell id="yg4im8KjUyEwOgaLJjGs-16" value="Si" style="edgeStyle=orthogonalEdgeStyle;rounded=0;orthogonalLoop=1;jettySize=auto;html=1;exitX=1;exitY=0.5;exitDx=0;exitDy=0;entryX=0.5;entryY=0;entryDx=0;entryDy=0;fontSize=16;" edge="1" parent="oYHx6eltpZ1rt-yPD6hr-1" source="yg4im8KjUyEwOgaLJjGs-2" target="yg4im8KjUyEwOgaLJjGs-15">
          <mxGeometry relative="1" as="geometry" />
        </mxCell>
        <mxCell id="yg4im8KjUyEwOgaLJjGs-2" value="4. ¿Existe Disponibilidad?" style="rhombus;whiteSpace=wrap;html=1;dashed=0;fontSize=16;" vertex="1" parent="oYHx6eltpZ1rt-yPD6hr-1">
          <mxGeometry x="127" y="326" width="80" height="80" as="geometry" />
        </mxCell>
        <mxCell id="yg4im8KjUyEwOgaLJjGs-13" value="32. Notificar falta de disponibilidad" style="rounded=1;whiteSpace=wrap;html=1;fontSize=16;" vertex="1" parent="oYHx6eltpZ1rt-yPD6hr-1">
          <mxGeometry x="20" y="400" width="120" height="60" as="geometry" />
        </mxCell>
        <mxCell id="yg4im8KjUyEwOgaLJjGs-18" style="edgeStyle=orthogonalEdgeStyle;rounded=0;orthogonalLoop=1;jettySize=auto;html=1;exitX=0.5;exitY=1;exitDx=0;exitDy=0;entryX=0.5;entryY=0;entryDx=0;entryDy=0;fontSize=16;" edge="1" parent="oYHx6eltpZ1rt-yPD6hr-1" source="yg4im8KjUyEwOgaLJjGs-15" target="yg4im8KjUyEwOgaLJjGs-17">
          <mxGeometry relative="1" as="geometry" />
        </mxCell>
        <mxCell id="yg4im8KjUyEwOgaLJjGs-15" value="5. Contactar clientes" style="rounded=1;whiteSpace=wrap;html=1;fontSize=16;" vertex="1" parent="oYHx6eltpZ1rt-yPD6hr-1">
          <mxGeometry x="200" y="400" width="120" height="60" as="geometry" />
        </mxCell>
        <mxCell id="yg4im8KjUyEwOgaLJjGs-33" value="No" style="edgeStyle=orthogonalEdgeStyle;rounded=0;orthogonalLoop=1;jettySize=auto;html=1;exitX=0;exitY=0.5;exitDx=0;exitDy=0;entryX=0.5;entryY=0;entryDx=0;entryDy=0;fontSize=16;" edge="1" parent="oYHx6eltpZ1rt-yPD6hr-1" source="yg4im8KjUyEwOgaLJjGs-17" target="yg4im8KjUyEwOgaLJjGs-32">
          <mxGeometry relative="1" as="geometry" />
        </mxCell>
        <mxCell id="yg4im8KjUyEwOgaLJjGs-17" value="6.¿Existe necesidad de venta adicional?" style="rhombus;whiteSpace=wrap;html=1;dashed=0;fontSize=16;" vertex="1" parent="oYHx6eltpZ1rt-yPD6hr-1">
          <mxGeometry x="220" y="489" width="80" height="80" as="geometry" />
        </mxCell>
        <mxCell id="yg4im8KjUyEwOgaLJjGs-19" value="FIN" style="html=1;dashed=0;whiteSpace=wrap;shape=mxgraph.dfd.start;fontSize=16;" vertex="1" parent="oYHx6eltpZ1rt-yPD6hr-1">
          <mxGeometry x="40" y="485" width="80" height="30" as="geometry" />
        </mxCell>
        <mxCell id="yg4im8KjUyEwOgaLJjGs-20" style="edgeStyle=orthogonalEdgeStyle;rounded=0;orthogonalLoop=1;jettySize=auto;html=1;exitX=0.5;exitY=1;exitDx=0;exitDy=0;entryX=0.5;entryY=0.5;entryDx=0;entryDy=-15.000000000000002;entryPerimeter=0;fontSize=16;" edge="1" parent="oYHx6eltpZ1rt-yPD6hr-1" source="yg4im8KjUyEwOgaLJjGs-13" target="yg4im8KjUyEwOgaLJjGs-19">
          <mxGeometry relative="1" as="geometry" />
        </mxCell>
        <mxCell id="yg4im8KjUyEwOgaLJjGs-34" style="edgeStyle=orthogonalEdgeStyle;rounded=0;orthogonalLoop=1;jettySize=auto;html=1;exitX=0;exitY=0.5;exitDx=0;exitDy=0;entryX=1;entryY=0.5;entryDx=0;entryDy=0;fontSize=16;" edge="1" parent="oYHx6eltpZ1rt-yPD6hr-1" source="yg4im8KjUyEwOgaLJjGs-30" target="yg4im8KjUyEwOgaLJjGs-32">
          <mxGeometry relative="1" as="geometry" />
        </mxCell>
        <mxCell id="yg4im8KjUyEwOgaLJjGs-30" value="9. Negociar comisión" style="rounded=1;whiteSpace=wrap;html=1;fontSize=16;" vertex="1" parent="oYHx6eltpZ1rt-yPD6hr-1">
          <mxGeometry x="190" y="585" width="120" height="60" as="geometry" />
        </mxCell>
        <mxCell id="yg4im8KjUyEwOgaLJjGs-36" value="&lt;div style=&quot;font-size: 16px;&quot;&gt;&lt;br style=&quot;font-size: 16px;&quot;&gt;&lt;/div&gt;" style="edgeStyle=orthogonalEdgeStyle;rounded=0;orthogonalLoop=1;jettySize=auto;html=1;exitX=0.5;exitY=1;exitDx=0;exitDy=0;entryX=0.5;entryY=0;entryDx=0;entryDy=0;fontSize=16;" edge="1" parent="oYHx6eltpZ1rt-yPD6hr-1" source="yg4im8KjUyEwOgaLJjGs-32" target="yg4im8KjUyEwOgaLJjGs-35">
          <mxGeometry relative="1" as="geometry" />
        </mxCell>
        <mxCell id="yg4im8KjUyEwOgaLJjGs-32" value="10. Validar precios" style="rounded=1;whiteSpace=wrap;html=1;fontSize=16;" vertex="1" parent="oYHx6eltpZ1rt-yPD6hr-1">
          <mxGeometry x="20" y="585" width="120" height="60" as="geometry" />
        </mxCell>
        <mxCell id="yg4im8KjUyEwOgaLJjGs-41" value="Si" style="edgeStyle=orthogonalEdgeStyle;rounded=0;orthogonalLoop=1;jettySize=auto;html=1;exitX=1;exitY=0.5;exitDx=0;exitDy=0;entryX=0;entryY=0.5;entryDx=0;entryDy=0;fontSize=16;" edge="1" parent="oYHx6eltpZ1rt-yPD6hr-1" source="yg4im8KjUyEwOgaLJjGs-35" target="yg4im8KjUyEwOgaLJjGs-38">
          <mxGeometry relative="1" as="geometry" />
        </mxCell>
        <mxCell id="yg4im8KjUyEwOgaLJjGs-42" value="No" style="edgeStyle=orthogonalEdgeStyle;rounded=0;orthogonalLoop=1;jettySize=auto;html=1;exitX=0.5;exitY=1;exitDx=0;exitDy=0;entryX=0;entryY=0.5;entryDx=0;entryDy=0;fontSize=16;" edge="1" parent="oYHx6eltpZ1rt-yPD6hr-1" source="yg4im8KjUyEwOgaLJjGs-35" target="yg4im8KjUyEwOgaLJjGs-39">
          <mxGeometry relative="1" as="geometry">
            <Array as="points">
              <mxPoint x="80" y="800" />
              <mxPoint x="107" y="800" />
            </Array>
          </mxGeometry>
        </mxCell>
        <mxCell id="yg4im8KjUyEwOgaLJjGs-35" value="11. ¿Cambió el precio?" style="rhombus;whiteSpace=wrap;html=1;dashed=0;fontSize=16;" vertex="1" parent="oYHx6eltpZ1rt-yPD6hr-1">
          <mxGeometry x="40" y="672" width="80" height="80" as="geometry" />
        </mxCell>
        <mxCell id="yg4im8KjUyEwOgaLJjGs-44" style="edgeStyle=orthogonalEdgeStyle;rounded=0;orthogonalLoop=1;jettySize=auto;html=1;exitX=0.5;exitY=1;exitDx=0;exitDy=0;entryX=1;entryY=0.5;entryDx=0;entryDy=0;fontSize=16;" edge="1" parent="oYHx6eltpZ1rt-yPD6hr-1" source="yg4im8KjUyEwOgaLJjGs-38" target="yg4im8KjUyEwOgaLJjGs-39">
          <mxGeometry relative="1" as="geometry" />
        </mxCell>
        <mxCell id="yg4im8KjUyEwOgaLJjGs-38" value="12. Notificar nuevo precio" style="rounded=1;whiteSpace=wrap;html=1;fontSize=16;" vertex="1" parent="oYHx6eltpZ1rt-yPD6hr-1">
          <mxGeometry x="190" y="682" width="120" height="60" as="geometry" />
        </mxCell>
        <mxCell id="yg4im8KjUyEwOgaLJjGs-49" style="edgeStyle=orthogonalEdgeStyle;rounded=0;orthogonalLoop=1;jettySize=auto;html=1;exitX=0.5;exitY=1;exitDx=0;exitDy=0;entryX=0.5;entryY=0;entryDx=0;entryDy=0;fontSize=16;" edge="1" parent="oYHx6eltpZ1rt-yPD6hr-1" source="yg4im8KjUyEwOgaLJjGs-39" target="yg4im8KjUyEwOgaLJjGs-45">
          <mxGeometry relative="1" as="geometry" />
        </mxCell>
        <mxCell id="yg4im8KjUyEwOgaLJjGs-39" value="12. Negociar venta" style="rounded=1;whiteSpace=wrap;html=1;fontSize=16;" vertex="1" parent="oYHx6eltpZ1rt-yPD6hr-1">
          <mxGeometry x="107" y="770" width="120" height="60" as="geometry" />
        </mxCell>
        <mxCell id="yg4im8KjUyEwOgaLJjGs-50" style="edgeStyle=orthogonalEdgeStyle;rounded=0;orthogonalLoop=1;jettySize=auto;html=1;exitX=0.5;exitY=1;exitDx=0;exitDy=0;entryX=0.5;entryY=0;entryDx=0;entryDy=0;fontSize=16;" edge="1" parent="oYHx6eltpZ1rt-yPD6hr-1" source="yg4im8KjUyEwOgaLJjGs-45" target="yg4im8KjUyEwOgaLJjGs-46">
          <mxGeometry relative="1" as="geometry" />
        </mxCell>
        <mxCell id="yg4im8KjUyEwOgaLJjGs-45" value="13. ¿Existe opción de descuento?" style="rhombus;whiteSpace=wrap;html=1;dashed=0;fontSize=16;" vertex="1" parent="oYHx6eltpZ1rt-yPD6hr-1">
          <mxGeometry x="127" y="854" width="80" height="80" as="geometry" />
        </mxCell>
        <mxCell id="yg4im8KjUyEwOgaLJjGs-46" value="14. Aplicar descuento" style="rounded=1;whiteSpace=wrap;html=1;fontSize=16;" vertex="1" parent="oYHx6eltpZ1rt-yPD6hr-1">
          <mxGeometry x="107" y="950" width="120" height="60" as="geometry" />
        </mxCell>
        <mxCell id="yg4im8KjUyEwOgaLJjGs-61" value="20. Marcar listas de ganado" style="rounded=1;whiteSpace=wrap;html=1;fontSize=16;" vertex="1" parent="oYHx6eltpZ1rt-yPD6hr-1">
          <mxGeometry x="95" y="1220" width="120" height="60" as="geometry" />
        </mxCell>
        <mxCell id="LXsfF5SBqkzXyGqB3FXE-2" value="" style="edgeStyle=orthogonalEdgeStyle;rounded=0;orthogonalLoop=1;jettySize=auto;html=1;fontSize=16;" edge="1" parent="oYHx6eltpZ1rt-yPD6hr-1" source="yg4im8KjUyEwOgaLJjGs-65" target="LXsfF5SBqkzXyGqB3FXE-1">
          <mxGeometry relative="1" as="geometry" />
        </mxCell>
        <mxCell id="yg4im8KjUyEwOgaLJjGs-65" value="22. Calcular valor de venta" style="rounded=1;whiteSpace=wrap;html=1;fontSize=16;" vertex="1" parent="oYHx6eltpZ1rt-yPD6hr-1">
          <mxGeometry x="95" y="1300" width="120" height="60" as="geometry" />
        </mxCell>
        <mxCell id="LXsfF5SBqkzXyGqB3FXE-1" value="23. Firmar guía de conducción" style="rounded=1;whiteSpace=wrap;html=1;fontSize=16;" vertex="1" parent="oYHx6eltpZ1rt-yPD6hr-1">
          <mxGeometry x="95" y="1390" width="120" height="60" as="geometry" />
        </mxCell>
        <mxCell id="LXsfF5SBqkzXyGqB3FXE-3" value="17. Llenar guía de conducción" style="rounded=1;whiteSpace=wrap;html=1;fontSize=16;" vertex="1" parent="oYHx6eltpZ1rt-yPD6hr-1">
          <mxGeometry x="95" y="1030" width="120" height="60" as="geometry" />
        </mxCell>
        <mxCell id="yg4im8KjUyEwOgaLJjGs-59" value="PR-FN-00013: Pesa de ganado" style="shape=offPageConnector;fontSize=16;labelPosition=center;verticalLabelPosition=top;align=center;verticalAlign=bottom;html=1;" vertex="1" parent="oYHx6eltpZ1rt-yPD6hr-1">
          <mxGeometry x="135" y="1124" width="40" height="40" as="geometry" />
        </mxCell>
        <mxCell id="yg4im8KjUyEwOgaLJjGs-62" style="edgeStyle=orthogonalEdgeStyle;rounded=0;orthogonalLoop=1;jettySize=auto;html=1;exitX=0.5;exitY=1;exitDx=0;exitDy=0;entryX=0.5;entryY=0;entryDx=0;entryDy=0;fontSize=16;" edge="1" parent="oYHx6eltpZ1rt-yPD6hr-1" source="yg4im8KjUyEwOgaLJjGs-59" target="yg4im8KjUyEwOgaLJjGs-61">
          <mxGeometry relative="1" as="geometry" />
        </mxCell>
        <mxCell id="oYHx6eltpZ1rt-yPD6hr-23" value="Vaqueros" style="swimlane;whiteSpace=wrap;html=1;movable=1;resizable=1;rotatable=1;deletable=1;editable=1;locked=0;connectable=1;fontSize=16;" parent="1" vertex="1">
          <mxGeometry x="400" y="40" width="260" height="1480" as="geometry" />
        </mxCell>
        <mxCell id="yg4im8KjUyEwOgaLJjGs-8" value="2. Proveer disponibilidad" style="rounded=1;whiteSpace=wrap;html=1;fontSize=16;" vertex="1" parent="oYHx6eltpZ1rt-yPD6hr-23">
          <mxGeometry x="60" y="130" width="120" height="60" as="geometry" />
        </mxCell>
        <mxCell id="yg4im8KjUyEwOgaLJjGs-28" value="" style="edgeStyle=orthogonalEdgeStyle;rounded=0;orthogonalLoop=1;jettySize=auto;html=1;entryX=0.5;entryY=0;entryDx=0;entryDy=0;fontSize=16;" edge="1" parent="oYHx6eltpZ1rt-yPD6hr-23" source="yg4im8KjUyEwOgaLJjGs-25" target="yg4im8KjUyEwOgaLJjGs-29">
          <mxGeometry relative="1" as="geometry">
            <mxPoint x="120" y="769.9999999999998" as="targetPoint" />
          </mxGeometry>
        </mxCell>
        <mxCell id="yg4im8KjUyEwOgaLJjGs-25" value="7. Buscar clientes adicionales" style="rounded=1;whiteSpace=wrap;html=1;fontSize=16;" vertex="1" parent="oYHx6eltpZ1rt-yPD6hr-23">
          <mxGeometry x="60" y="498" width="120" height="60" as="geometry" />
        </mxCell>
        <mxCell id="yg4im8KjUyEwOgaLJjGs-29" value="8. ¿Es comisionista?" style="rhombus;whiteSpace=wrap;html=1;dashed=0;fontSize=16;" vertex="1" parent="oYHx6eltpZ1rt-yPD6hr-23">
          <mxGeometry x="80" y="575" width="80" height="80" as="geometry" />
        </mxCell>
        <mxCell id="yg4im8KjUyEwOgaLJjGs-58" value="" style="edgeStyle=orthogonalEdgeStyle;rounded=0;orthogonalLoop=1;jettySize=auto;html=1;fontSize=16;" edge="1" parent="oYHx6eltpZ1rt-yPD6hr-23" source="yg4im8KjUyEwOgaLJjGs-55" target="yg4im8KjUyEwOgaLJjGs-57">
          <mxGeometry relative="1" as="geometry" />
        </mxCell>
        <mxCell id="yg4im8KjUyEwOgaLJjGs-55" value="18. Registrar camión de traslado" style="rounded=1;whiteSpace=wrap;html=1;fontSize=16;" vertex="1" parent="oYHx6eltpZ1rt-yPD6hr-23">
          <mxGeometry x="60" y="1030" width="120" height="60" as="geometry" />
        </mxCell>
        <mxCell id="yg4im8KjUyEwOgaLJjGs-57" value="19. Marcar ganado" style="rounded=1;whiteSpace=wrap;html=1;fontSize=16;" vertex="1" parent="oYHx6eltpZ1rt-yPD6hr-23">
          <mxGeometry x="60" y="1114" width="120" height="60" as="geometry" />
        </mxCell>
        <mxCell id="yg4im8KjUyEwOgaLJjGs-53" value="16. Coordinar venta" style="rounded=1;whiteSpace=wrap;html=1;fontSize=16;" vertex="1" parent="oYHx6eltpZ1rt-yPD6hr-23">
          <mxGeometry x="320" y="1030" width="120" height="60" as="geometry" />
        </mxCell>
        <mxCell id="yg4im8KjUyEwOgaLJjGs-56" value="" style="edgeStyle=orthogonalEdgeStyle;rounded=0;orthogonalLoop=1;jettySize=auto;html=1;fontSize=16;" edge="1" parent="oYHx6eltpZ1rt-yPD6hr-23" source="yg4im8KjUyEwOgaLJjGs-53" target="yg4im8KjUyEwOgaLJjGs-55">
          <mxGeometry relative="1" as="geometry" />
        </mxCell>
        <mxCell id="yg4im8KjUyEwOgaLJjGs-63" value="21. Cargar ganado en camión" style="rounded=1;whiteSpace=wrap;html=1;fontSize=16;" vertex="1" parent="oYHx6eltpZ1rt-yPD6hr-23">
          <mxGeometry x="60" y="1220" width="120" height="60" as="geometry" />
        </mxCell>
        <mxCell id="niJyDI7PR8dC_mDymDL2-2" value="Cliente" style="swimlane;whiteSpace=wrap;html=1;movable=1;resizable=1;rotatable=1;deletable=1;editable=1;locked=0;connectable=1;fontSize=16;" parent="1" vertex="1">
          <mxGeometry x="660" y="40" width="270" height="1480" as="geometry" />
        </mxCell>
        <mxCell id="yg4im8KjUyEwOgaLJjGs-47" value="15. Confirmar Venta" style="rounded=1;whiteSpace=wrap;html=1;fontSize=16;" vertex="1" parent="niJyDI7PR8dC_mDymDL2-2">
          <mxGeometry x="60" y="950" width="120" height="60" as="geometry" />
        </mxCell>
        <mxCell id="niJyDI7PR8dC_mDymDL2-9" value="Secretaria" style="swimlane;whiteSpace=wrap;html=1;movable=1;resizable=1;rotatable=1;deletable=1;editable=1;locked=0;connectable=1;fontSize=16;" parent="1" vertex="1">
          <mxGeometry x="930" y="40" width="230" height="1480" as="geometry" />
        </mxCell>
        <mxCell id="X1bI32ypnxMWUchvlv50-1" value="&lt;span style=&quot;font-size:9.0pt;font-family:&lt;br/&gt;&amp;quot;Arial&amp;quot;,sans-serif;mso-fareast-font-family:Arial;mso-ansi-language:ES-TRAD;&lt;br/&gt;mso-fareast-language:ES-TRAD;mso-bidi-language:AR-SA&quot; lang=&quot;ES-TRAD&quot;&gt;PR-FN-00082: Emisión de&lt;br/&gt;facturas a clientes&lt;/span&gt;" style="shape=offPageConnector;html=1;fontSize=16;labelPosition=center;verticalLabelPosition=bottom;align=center;verticalAlign=top;textShadow=0;" vertex="1" parent="niJyDI7PR8dC_mDymDL2-9">
          <mxGeometry x="70" y="1369" width="40" height="40" as="geometry" />
        </mxCell>
        <mxCell id="X1bI32ypnxMWUchvlv50-2" style="edgeStyle=orthogonalEdgeStyle;rounded=0;orthogonalLoop=1;jettySize=auto;html=1;exitX=0.5;exitY=1;exitDx=0;exitDy=0;entryX=0.5;entryY=0;entryDx=0;entryDy=0;fontSize=16;" edge="1" parent="niJyDI7PR8dC_mDymDL2-9" source="X1bI32ypnxMWUchvlv50-3" target="X1bI32ypnxMWUchvlv50-1">
          <mxGeometry relative="1" as="geometry" />
        </mxCell>
        <mxCell id="X1bI32ypnxMWUchvlv50-3" value="&lt;span style=&quot;font-size:9.0pt;font-family:&lt;br/&gt;&amp;quot;Arial&amp;quot;,sans-serif;mso-fareast-font-family:Arial;mso-ansi-language:ES-TRAD;&lt;br/&gt;mso-fareast-language:ES-TRAD;mso-bidi-language:AR-SA&quot; lang=&quot;ES-TRAD&quot;&gt;PR-FN-00078: Cobro de&lt;br/&gt;venta de ganado&lt;/span&gt;" style="shape=offPageConnector;html=1;fontSize=16;verticalAlign=bottom;horizontal=1;labelPosition=center;verticalLabelPosition=top;align=center;" vertex="1" parent="niJyDI7PR8dC_mDymDL2-9">
          <mxGeometry x="70" y="1280" width="40" height="40" as="geometry" />
        </mxCell>
        <mxCell id="yg4im8KjUyEwOgaLJjGs-11" value="" style="edgeStyle=orthogonalEdgeStyle;rounded=0;orthogonalLoop=1;jettySize=auto;html=1;exitX=0.5;exitY=1;exitDx=0;exitDy=0;fontSize=16;" edge="1" parent="1" source="yg4im8KjUyEwOgaLJjGs-8" target="yg4im8KjUyEwOgaLJjGs-10">
          <mxGeometry relative="1" as="geometry" />
        </mxCell>
        <mxCell id="yg4im8KjUyEwOgaLJjGs-9" value="" style="edgeStyle=orthogonalEdgeStyle;rounded=0;orthogonalLoop=1;jettySize=auto;html=1;entryX=0;entryY=0.5;entryDx=0;entryDy=0;exitX=1;exitY=0.5;exitDx=0;exitDy=0;fontSize=16;" edge="1" parent="1" source="yg4im8KjUyEwOgaLJjGs-3" target="yg4im8KjUyEwOgaLJjGs-8">
          <mxGeometry relative="1" as="geometry" />
        </mxCell>
        <mxCell id="yg4im8KjUyEwOgaLJjGs-26" value="Si" style="edgeStyle=orthogonalEdgeStyle;rounded=0;orthogonalLoop=1;jettySize=auto;html=1;exitX=1;exitY=0.5;exitDx=0;exitDy=0;entryX=0;entryY=0.5;entryDx=0;entryDy=0;fontSize=16;" edge="1" parent="1" source="yg4im8KjUyEwOgaLJjGs-17" target="yg4im8KjUyEwOgaLJjGs-25">
          <mxGeometry relative="1" as="geometry">
            <mxPoint x="460" y="563" as="targetPoint" />
          </mxGeometry>
        </mxCell>
        <mxCell id="yg4im8KjUyEwOgaLJjGs-31" style="edgeStyle=orthogonalEdgeStyle;rounded=0;orthogonalLoop=1;jettySize=auto;html=1;exitX=0;exitY=0.5;exitDx=0;exitDy=0;entryX=1;entryY=0.5;entryDx=0;entryDy=0;fontSize=16;" edge="1" parent="1" source="yg4im8KjUyEwOgaLJjGs-29" target="yg4im8KjUyEwOgaLJjGs-30">
          <mxGeometry relative="1" as="geometry" />
        </mxCell>
        <mxCell id="yg4im8KjUyEwOgaLJjGs-51" style="edgeStyle=orthogonalEdgeStyle;rounded=0;orthogonalLoop=1;jettySize=auto;html=1;exitX=1;exitY=0.5;exitDx=0;exitDy=0;entryX=0.5;entryY=0;entryDx=0;entryDy=0;fontSize=16;" edge="1" parent="1" source="yg4im8KjUyEwOgaLJjGs-45" target="yg4im8KjUyEwOgaLJjGs-47">
          <mxGeometry relative="1" as="geometry" />
        </mxCell>
        <mxCell id="yg4im8KjUyEwOgaLJjGs-52" style="edgeStyle=orthogonalEdgeStyle;rounded=0;orthogonalLoop=1;jettySize=auto;html=1;exitX=1;exitY=0.5;exitDx=0;exitDy=0;entryX=0;entryY=0.5;entryDx=0;entryDy=0;fontSize=16;" edge="1" parent="1" source="yg4im8KjUyEwOgaLJjGs-46" target="yg4im8KjUyEwOgaLJjGs-47">
          <mxGeometry relative="1" as="geometry" />
        </mxCell>
        <mxCell id="yg4im8KjUyEwOgaLJjGs-54" value="" style="edgeStyle=orthogonalEdgeStyle;rounded=0;orthogonalLoop=1;jettySize=auto;html=1;fontSize=16;" edge="1" parent="1" source="yg4im8KjUyEwOgaLJjGs-47" target="yg4im8KjUyEwOgaLJjGs-53">
          <mxGeometry relative="1" as="geometry" />
        </mxCell>
        <mxCell id="yg4im8KjUyEwOgaLJjGs-64" value="" style="edgeStyle=orthogonalEdgeStyle;rounded=0;orthogonalLoop=1;jettySize=auto;html=1;fontSize=16;" edge="1" parent="1" source="yg4im8KjUyEwOgaLJjGs-61" target="yg4im8KjUyEwOgaLJjGs-63">
          <mxGeometry relative="1" as="geometry" />
        </mxCell>
        <mxCell id="yg4im8KjUyEwOgaLJjGs-66" value="" style="edgeStyle=orthogonalEdgeStyle;rounded=0;orthogonalLoop=1;jettySize=auto;html=1;entryX=1;entryY=0.5;entryDx=0;entryDy=0;exitX=0.5;exitY=1;exitDx=0;exitDy=0;fontSize=16;" edge="1" parent="1" source="yg4im8KjUyEwOgaLJjGs-63" target="yg4im8KjUyEwOgaLJjGs-65">
          <mxGeometry relative="1" as="geometry" />
        </mxCell>
        <mxCell id="LXsfF5SBqkzXyGqB3FXE-4" style="edgeStyle=orthogonalEdgeStyle;rounded=0;orthogonalLoop=1;jettySize=auto;html=1;exitX=1;exitY=0.5;exitDx=0;exitDy=0;entryX=0;entryY=0.5;entryDx=0;entryDy=0;fontSize=16;" edge="1" parent="1" source="LXsfF5SBqkzXyGqB3FXE-3" target="yg4im8KjUyEwOgaLJjGs-55">
          <mxGeometry relative="1" as="geometry" />
        </mxCell>
        <mxCell id="X1bI32ypnxMWUchvlv50-4" style="edgeStyle=orthogonalEdgeStyle;rounded=0;orthogonalLoop=1;jettySize=auto;html=1;entryX=0;entryY=0.5;entryDx=0;entryDy=0;fontSize=16;" edge="1" parent="1" source="LXsfF5SBqkzXyGqB3FXE-1" target="X1bI32ypnxMWUchvlv50-3">
          <mxGeometry relative="1" as="geometry" />
        </mxCell>
        <mxCell id="yg4im8KjUyEwOgaLJjGs-60" style="edgeStyle=orthogonalEdgeStyle;rounded=0;orthogonalLoop=1;jettySize=auto;html=1;exitX=0;exitY=0.5;exitDx=0;exitDy=0;entryX=1;entryY=0.5;entryDx=0;entryDy=0;fontSize=16;" edge="1" parent="1" source="yg4im8KjUyEwOgaLJjGs-57" target="yg4im8KjUyEwOgaLJjGs-59">
          <mxGeometry relative="1" as="geometry" />
        </mxCell>
      </root>
    </mxGraphModel>
  </diagram>
</mxfile>
